<svg xmlns="http://www.w3.org/2000/svg" xmlns:xlink="http://www.w3.org/1999/xlink" width="500" zoomAndPan="magnify" viewBox="0 0 375 374.999991" height="500" preserveAspectRatio="xMidYMid meet" version="1.0"><defs><g/><clipPath id="bfca6b2eab"><path d="M 7.414062 149 L 188 149 L 188 308.644531 L 7.414062 308.644531 Z M 7.414062 149 " clip-rule="nonzero"/></clipPath><clipPath id="b010025abd"><path d="M 187 66.394531 L 367.414062 66.394531 L 367.414062 226 L 187 226 Z M 187 66.394531 " clip-rule="nonzero"/></clipPath></defs><g clip-path="url(#bfca6b2eab)"><path fill="#0652e9" d="M 128.691406 262.195312 L 128.691406 284.117188 L 29.410156 237.996094 L 29.410156 220.207031 L 128.691406 174.082031 L 128.691406 196.011719 L 53.609375 228.894531 L 53.609375 229.308594 Z M 187.652344 149.722656 L 21.625 149.722656 C 13.785156 149.722656 7.429688 156.078125 7.429688 163.917969 L 7.429688 294.289062 C 7.429688 302.125 13.785156 308.480469 21.625 308.480469 L 141.5625 308.480469 L 187.652344 149.722656 " fill-opacity="1" fill-rule="nonzero"/></g><g clip-path="url(#b010025abd)"><path fill="#62e1e9" d="M 345.625 155.363281 L 246.347656 200.863281 L 246.347656 178.9375 L 323.082031 146.054688 L 323.082031 145.640625 L 246.347656 112.75 L 246.347656 90.828125 L 345.625 136.332031 Z M 233.742188 66.46875 L 187.652344 225.226562 L 353.410156 225.226562 C 361.25 225.226562 367.605469 218.871094 367.605469 211.03125 L 367.605469 80.660156 C 367.605469 72.824219 361.25 66.46875 353.410156 66.46875 L 233.742188 66.46875 " fill-opacity="1" fill-rule="nonzero"/></g><g fill="#ffffff" fill-opacity="1"><g transform="translate(26.470924, 101.782022)"><g><path d="M 9.742188 0 L 9.742188 -2.808594 L 3.566406 -2.808594 L 3.566406 -9.503906 L 9.742188 -9.503906 L 9.742188 -12.332031 L 0.480469 -12.332031 L 0.480469 0 Z M 9.742188 0 "/></g></g></g><g fill="#ffffff" fill-opacity="1"><g transform="translate(42.776548, 101.782022)"><g><path d="M 9.742188 0 L 9.742188 -12.332031 L 0.480469 -12.332031 L 0.480469 0 Z M 6.65625 -2.808594 L 3.566406 -2.808594 L 3.566406 -9.503906 L 6.65625 -9.503906 Z M 6.65625 -2.808594 "/></g></g></g><g fill="#ffffff" fill-opacity="1"><g transform="translate(59.193104, 101.782022)"><g><path d="M 12.609375 0 L 12.609375 -12.332031 L 0.277344 -12.332031 L 0.277344 -9.503906 L 0.886719 -9.503906 L 0.886719 0 L 3.363281 0 L 3.363281 -9.503906 L 4.898438 -9.503906 L 4.898438 0 L 7.988281 0 L 7.988281 -9.503906 L 9.519531 -9.503906 L 9.519531 0 Z M 12.609375 0 "/></g></g></g><g fill="#ffffff" fill-opacity="1"><g transform="translate(78.475174, 101.782022)"><g><path d="M 9.742188 -3.4375 L 9.742188 -12.332031 L 0.480469 -12.332031 L 0.480469 0 L 3.566406 0 L 3.566406 -3.4375 Z M 6.65625 -6.25 L 3.566406 -6.25 L 3.566406 -9.503906 L 6.65625 -9.503906 Z M 6.65625 -6.25 "/></g></g></g><g fill="#ffffff" fill-opacity="1"><g transform="translate(94.836275, 101.782022)"><g><path d="M 9.707031 0 L 9.707031 -2.808594 L 3.566406 -2.808594 L 3.566406 -4.84375 L 9.707031 -4.84375 L 9.707031 -7.5625 L 3.566406 -7.5625 L 3.566406 -9.503906 L 9.707031 -9.503906 L 9.707031 -12.332031 L 0.480469 -12.332031 L 0.480469 0 Z M 9.707031 0 "/></g></g></g><g fill="#ffffff" fill-opacity="1"><g transform="translate(111.215854, 101.782022)"><g><path d="M 9.539062 -9.503906 L 9.539062 -12.332031 L 0.277344 -12.332031 L 0.277344 -9.503906 L 3.382812 -9.503906 L 3.382812 0 L 6.46875 0 L 6.46875 -9.503906 Z M 9.539062 -9.503906 "/></g></g></g><g fill="#ffffff" fill-opacity="1"><g transform="translate(127.225684, 101.782022)"><g><path d="M 3.566406 0 L 3.566406 -12.332031 L 0.480469 -12.332031 L 0.480469 0 Z M 3.566406 0 "/></g></g></g><g fill="#ffffff" fill-opacity="1"><g transform="translate(137.467526, 101.782022)"><g><path d="M 9.539062 -9.503906 L 9.539062 -12.332031 L 0.277344 -12.332031 L 0.277344 -9.503906 L 3.382812 -9.503906 L 3.382812 0 L 6.46875 0 L 6.46875 -9.503906 Z M 9.539062 -9.503906 "/></g></g></g><g fill="#ffffff" fill-opacity="1"><g transform="translate(153.477361, 101.782022)"><g><path d="M 3.566406 0 L 3.566406 -12.332031 L 0.480469 -12.332031 L 0.480469 0 Z M 3.566406 0 "/></g></g></g><g fill="#ffffff" fill-opacity="1"><g transform="translate(163.719203, 101.782022)"><g><path d="M 10.148438 -9.503906 L 10.148438 -12.332031 L 6.453125 -12.332031 L 6.453125 -2.808594 L 3.976562 -2.808594 L 3.976562 -12.332031 L 0.277344 -12.332031 L 0.277344 -9.503906 L 0.886719 -9.503906 L 0.886719 0 L 9.539062 0 L 9.539062 -9.503906 Z M 10.148438 -9.503906 "/></g></g></g><g fill="#ffffff" fill-opacity="1"><g transform="translate(180.339116, 101.782022)"><g><path d="M 9.707031 0 L 9.707031 -2.808594 L 3.566406 -2.808594 L 3.566406 -4.84375 L 9.707031 -4.84375 L 9.707031 -7.5625 L 3.566406 -7.5625 L 3.566406 -9.503906 L 9.707031 -9.503906 L 9.707031 -12.332031 L 0.480469 -12.332031 L 0.480469 0 Z M 9.707031 0 "/></g></g></g><g fill="#ffffff" fill-opacity="1"><g transform="translate(179.604339, 281.591251)"><g><path d="M 9.742188 -3.4375 L 9.742188 -12.332031 L 0.480469 -12.332031 L 0.480469 0 L 3.566406 0 L 3.566406 -3.4375 Z M 6.65625 -6.25 L 3.566406 -6.25 L 3.566406 -9.503906 L 6.65625 -9.503906 Z M 6.65625 -6.25 "/></g></g></g><g fill="#ffffff" fill-opacity="1"><g transform="translate(195.965441, 281.591251)"><g><path d="M 9.742188 0 L 7.929688 -3.4375 L 9.742188 -3.4375 L 9.742188 -12.332031 L 0.480469 -12.332031 L 0.480469 0 L 3.566406 0 L 3.566406 -3.4375 L 4.898438 -3.4375 L 6.65625 0 Z M 6.65625 -6.25 L 3.566406 -6.25 L 3.566406 -9.503906 L 6.65625 -9.503906 Z M 6.65625 -6.25 "/></g></g></g><g fill="#ffffff" fill-opacity="1"><g transform="translate(212.381997, 281.591251)"><g><path d="M 9.742188 0 L 9.742188 -12.332031 L 0.480469 -12.332031 L 0.480469 0 Z M 6.65625 -2.808594 L 3.566406 -2.808594 L 3.566406 -9.503906 L 6.65625 -9.503906 Z M 6.65625 -2.808594 "/></g></g></g><g fill="#ffffff" fill-opacity="1"><g transform="translate(228.798553, 281.591251)"><g><path d="M 9.742188 0 L 9.742188 -4.84375 L 6.65625 -4.84375 L 6.65625 -2.808594 L 3.566406 -2.808594 L 3.566406 -9.503906 L 9.742188 -9.503906 L 9.742188 -12.332031 L 0.480469 -12.332031 L 0.480469 0 Z M 9.742188 0 "/></g></g></g><g fill="#ffffff" fill-opacity="1"><g transform="translate(245.215109, 281.591251)"><g><path d="M 9.742188 0 L 7.929688 -3.4375 L 9.742188 -3.4375 L 9.742188 -12.332031 L 0.480469 -12.332031 L 0.480469 0 L 3.566406 0 L 3.566406 -3.4375 L 4.898438 -3.4375 L 6.65625 0 Z M 6.65625 -6.25 L 3.566406 -6.25 L 3.566406 -9.503906 L 6.65625 -9.503906 Z M 6.65625 -6.25 "/></g></g></g><g fill="#ffffff" fill-opacity="1"><g transform="translate(261.631664, 281.591251)"><g><path d="M 9.742188 0 L 9.742188 -12.332031 L 0.480469 -12.332031 L 0.480469 0 L 3.566406 0 L 3.566406 -3.4375 L 6.65625 -3.4375 L 6.65625 0 Z M 6.65625 -6.25 L 3.566406 -6.25 L 3.566406 -9.503906 L 6.65625 -9.503906 Z M 6.65625 -6.25 "/></g></g></g><g fill="#ffffff" fill-opacity="1"><g transform="translate(278.04822, 281.591251)"><g><path d="M 12.609375 0 L 12.609375 -12.332031 L 0.277344 -12.332031 L 0.277344 -9.503906 L 0.886719 -9.503906 L 0.886719 0 L 3.363281 0 L 3.363281 -9.503906 L 4.898438 -9.503906 L 4.898438 0 L 7.988281 0 L 7.988281 -9.503906 L 9.519531 -9.503906 L 9.519531 0 Z M 12.609375 0 "/></g></g></g><g fill="#ffffff" fill-opacity="1"><g transform="translate(297.330284, 281.591251)"><g><path d="M 12.609375 0 L 12.609375 -12.332031 L 0.277344 -12.332031 L 0.277344 -9.503906 L 0.886719 -9.503906 L 0.886719 0 L 3.363281 0 L 3.363281 -9.503906 L 4.898438 -9.503906 L 4.898438 0 L 7.988281 0 L 7.988281 -9.503906 L 9.519531 -9.503906 L 9.519531 0 Z M 12.609375 0 "/></g></g></g><g fill="#ffffff" fill-opacity="1"><g transform="translate(316.61236, 281.591251)"><g><path d="M 3.566406 0 L 3.566406 -12.332031 L 0.480469 -12.332031 L 0.480469 0 Z M 3.566406 0 "/></g></g></g><g fill="#ffffff" fill-opacity="1"><g transform="translate(326.854202, 281.591251)"><g><path d="M 9.539062 0 L 9.539062 -12.332031 L 0.277344 -12.332031 L 0.277344 -9.503906 L 0.886719 -9.503906 L 0.886719 0 L 3.363281 0 L 3.363281 -9.503906 L 6.453125 -9.503906 L 6.453125 0 Z M 9.539062 0 "/></g></g></g><g fill="#ffffff" fill-opacity="1"><g transform="translate(343.067389, 281.591251)"><g><path d="M 9.742188 0 L 9.742188 -4.84375 L 6.65625 -4.84375 L 6.65625 -2.808594 L 3.566406 -2.808594 L 3.566406 -9.503906 L 9.742188 -9.503906 L 9.742188 -12.332031 L 0.480469 -12.332031 L 0.480469 0 Z M 9.742188 0 "/></g></g></g></svg>