<svg xmlns="http://www.w3.org/2000/svg" xmlns:xlink="http://www.w3.org/1999/xlink" width="500" zoomAndPan="magnify" viewBox="0 0 375 374.999991" height="500" preserveAspectRatio="xMidYMid meet" version="1.0"><defs><g/><clipPath id="4cd9277f72"><path d="M 7.042969 171 L 85 171 L 85 239.144531 L 7.042969 239.144531 Z M 7.042969 171 " clip-rule="nonzero"/></clipPath><clipPath id="432912c85e"><path d="M 84 135.515625 L 161.636719 135.515625 L 161.636719 204 L 84 204 Z M 84 135.515625 " clip-rule="nonzero"/></clipPath></defs><g clip-path="url(#4cd9277f72)"><path fill="#0652e9" d="M 59.050781 219.488281 L 59.050781 228.886719 L 16.472656 209.109375 L 16.472656 201.480469 L 59.050781 181.699219 L 59.050781 191.101562 L 26.851562 205.203125 L 26.851562 205.382812 Z M 84.339844 171.25 L 13.132812 171.25 C 9.773438 171.25 7.046875 173.976562 7.046875 177.339844 L 7.046875 233.25 C 7.046875 236.609375 9.773438 239.335938 13.132812 239.335938 L 64.574219 239.335938 L 84.339844 171.25 " fill-opacity="1" fill-rule="nonzero"/></g><g clip-path="url(#432912c85e)"><path fill="#62e1e9" d="M 152.089844 173.667969 L 109.511719 193.183594 L 109.511719 183.78125 L 142.421875 169.675781 L 142.421875 169.5 L 109.511719 155.394531 L 109.511719 145.992188 L 152.089844 165.507812 Z M 104.105469 135.546875 L 84.339844 203.632812 L 155.429688 203.632812 C 158.789062 203.632812 161.515625 200.90625 161.515625 197.542969 L 161.515625 141.632812 C 161.515625 138.269531 158.789062 135.546875 155.429688 135.546875 L 104.105469 135.546875 " fill-opacity="1" fill-rule="nonzero"/></g><g fill="#000000" fill-opacity="1"><g transform="translate(15.213666, 150.691843)"><g><path d="M 4.179688 0 L 4.179688 -1.207031 L 1.53125 -1.207031 L 1.53125 -4.074219 L 4.179688 -4.074219 L 4.179688 -5.289062 L 0.207031 -5.289062 L 0.207031 0 Z M 4.179688 0 "/></g></g></g><g fill="#000000" fill-opacity="1"><g transform="translate(22.206552, 150.691843)"><g><path d="M 4.179688 0 L 4.179688 -5.289062 L 0.207031 -5.289062 L 0.207031 0 Z M 2.855469 -1.207031 L 1.53125 -1.207031 L 1.53125 -4.074219 L 2.855469 -4.074219 Z M 2.855469 -1.207031 "/></g></g></g><g fill="#000000" fill-opacity="1"><g transform="translate(29.247013, 150.691843)"><g><path d="M 5.40625 0 L 5.40625 -5.289062 L 0.117188 -5.289062 L 0.117188 -4.074219 L 0.378906 -4.074219 L 0.378906 0 L 1.441406 0 L 1.441406 -4.074219 L 2.101562 -4.074219 L 2.101562 0 L 3.425781 0 L 3.425781 -4.074219 L 4.082031 -4.074219 L 4.082031 0 Z M 5.40625 0 "/></g></g></g><g fill="#000000" fill-opacity="1"><g transform="translate(37.516389, 150.691843)"><g><path d="M 4.179688 -1.476562 L 4.179688 -5.289062 L 0.207031 -5.289062 L 0.207031 0 L 1.53125 0 L 1.53125 -1.476562 Z M 2.855469 -2.679688 L 1.53125 -2.679688 L 1.53125 -4.074219 L 2.855469 -4.074219 Z M 2.855469 -2.679688 "/></g></g></g><g fill="#000000" fill-opacity="1"><g transform="translate(44.533068, 150.691843)"><g><path d="M 4.164062 0 L 4.164062 -1.207031 L 1.53125 -1.207031 L 1.53125 -2.078125 L 4.164062 -2.078125 L 4.164062 -3.242188 L 1.53125 -3.242188 L 1.53125 -4.074219 L 4.164062 -4.074219 L 4.164062 -5.289062 L 0.207031 -5.289062 L 0.207031 0 Z M 4.164062 0 "/></g></g></g><g fill="#000000" fill-opacity="1"><g transform="translate(51.557671, 150.691843)"><g><path d="M 4.089844 -4.074219 L 4.089844 -5.289062 L 0.117188 -5.289062 L 0.117188 -4.074219 L 1.449219 -4.074219 L 1.449219 0 L 2.773438 0 L 2.773438 -4.074219 Z M 4.089844 -4.074219 "/></g></g></g><g fill="#000000" fill-opacity="1"><g transform="translate(58.423702, 150.691843)"><g><path d="M 1.53125 0 L 1.53125 -5.289062 L 0.207031 -5.289062 L 0.207031 0 Z M 1.53125 0 "/></g></g></g><g fill="#000000" fill-opacity="1"><g transform="translate(62.816054, 150.691843)"><g><path d="M 4.089844 -4.074219 L 4.089844 -5.289062 L 0.117188 -5.289062 L 0.117188 -4.074219 L 1.449219 -4.074219 L 1.449219 0 L 2.773438 0 L 2.773438 -4.074219 Z M 4.089844 -4.074219 "/></g></g></g><g fill="#000000" fill-opacity="1"><g transform="translate(69.682087, 150.691843)"><g><path d="M 1.53125 0 L 1.53125 -5.289062 L 0.207031 -5.289062 L 0.207031 0 Z M 1.53125 0 "/></g></g></g><g fill="#000000" fill-opacity="1"><g transform="translate(74.074439, 150.691843)"><g><path d="M 4.351562 -4.074219 L 4.351562 -5.289062 L 2.765625 -5.289062 L 2.765625 -1.207031 L 1.703125 -1.207031 L 1.703125 -5.289062 L 0.117188 -5.289062 L 0.117188 -4.074219 L 0.378906 -4.074219 L 0.378906 0 L 4.089844 0 L 4.089844 -4.074219 Z M 4.351562 -4.074219 "/></g></g></g><g fill="#000000" fill-opacity="1"><g transform="translate(81.202113, 150.691843)"><g><path d="M 4.164062 0 L 4.164062 -1.207031 L 1.53125 -1.207031 L 1.53125 -2.078125 L 4.164062 -2.078125 L 4.164062 -3.242188 L 1.53125 -3.242188 L 1.53125 -4.074219 L 4.164062 -4.074219 L 4.164062 -5.289062 L 0.207031 -5.289062 L 0.207031 0 Z M 4.164062 0 "/></g></g></g><g fill="#000000" fill-opacity="1"><g transform="translate(80.886989, 227.805547)"><g><path d="M 4.179688 -1.476562 L 4.179688 -5.289062 L 0.207031 -5.289062 L 0.207031 0 L 1.53125 0 L 1.53125 -1.476562 Z M 2.855469 -2.679688 L 1.53125 -2.679688 L 1.53125 -4.074219 L 2.855469 -4.074219 Z M 2.855469 -2.679688 "/></g></g></g><g fill="#000000" fill-opacity="1"><g transform="translate(87.903667, 227.805547)"><g><path d="M 4.179688 0 L 3.402344 -1.476562 L 4.179688 -1.476562 L 4.179688 -5.289062 L 0.207031 -5.289062 L 0.207031 0 L 1.53125 0 L 1.53125 -1.476562 L 2.101562 -1.476562 L 2.855469 0 Z M 2.855469 -2.679688 L 1.53125 -2.679688 L 1.53125 -4.074219 L 2.855469 -4.074219 Z M 2.855469 -2.679688 "/></g></g></g><g fill="#000000" fill-opacity="1"><g transform="translate(94.944129, 227.805547)"><g><path d="M 4.179688 0 L 4.179688 -5.289062 L 0.207031 -5.289062 L 0.207031 0 Z M 2.855469 -1.207031 L 1.53125 -1.207031 L 1.53125 -4.074219 L 2.855469 -4.074219 Z M 2.855469 -1.207031 "/></g></g></g><g fill="#000000" fill-opacity="1"><g transform="translate(101.98459, 227.805547)"><g><path d="M 4.179688 0 L 4.179688 -2.078125 L 2.855469 -2.078125 L 2.855469 -1.207031 L 1.53125 -1.207031 L 1.53125 -4.074219 L 4.179688 -4.074219 L 4.179688 -5.289062 L 0.207031 -5.289062 L 0.207031 0 Z M 4.179688 0 "/></g></g></g><g fill="#000000" fill-opacity="1"><g transform="translate(109.025051, 227.805547)"><g><path d="M 4.179688 0 L 3.402344 -1.476562 L 4.179688 -1.476562 L 4.179688 -5.289062 L 0.207031 -5.289062 L 0.207031 0 L 1.53125 0 L 1.53125 -1.476562 L 2.101562 -1.476562 L 2.855469 0 Z M 2.855469 -2.679688 L 1.53125 -2.679688 L 1.53125 -4.074219 L 2.855469 -4.074219 Z M 2.855469 -2.679688 "/></g></g></g><g fill="#000000" fill-opacity="1"><g transform="translate(116.065512, 227.805547)"><g><path d="M 4.179688 0 L 4.179688 -5.289062 L 0.207031 -5.289062 L 0.207031 0 L 1.53125 0 L 1.53125 -1.476562 L 2.855469 -1.476562 L 2.855469 0 Z M 2.855469 -2.679688 L 1.53125 -2.679688 L 1.53125 -4.074219 L 2.855469 -4.074219 Z M 2.855469 -2.679688 "/></g></g></g><g fill="#000000" fill-opacity="1"><g transform="translate(123.105973, 227.805547)"><g><path d="M 5.40625 0 L 5.40625 -5.289062 L 0.117188 -5.289062 L 0.117188 -4.074219 L 0.378906 -4.074219 L 0.378906 0 L 1.441406 0 L 1.441406 -4.074219 L 2.101562 -4.074219 L 2.101562 0 L 3.425781 0 L 3.425781 -4.074219 L 4.082031 -4.074219 L 4.082031 0 Z M 5.40625 0 "/></g></g></g><g fill="#000000" fill-opacity="1"><g transform="translate(131.375346, 227.805547)"><g><path d="M 5.40625 0 L 5.40625 -5.289062 L 0.117188 -5.289062 L 0.117188 -4.074219 L 0.378906 -4.074219 L 0.378906 0 L 1.441406 0 L 1.441406 -4.074219 L 2.101562 -4.074219 L 2.101562 0 L 3.425781 0 L 3.425781 -4.074219 L 4.082031 -4.074219 L 4.082031 0 Z M 5.40625 0 "/></g></g></g><g fill="#000000" fill-opacity="1"><g transform="translate(139.644724, 227.805547)"><g><path d="M 1.53125 0 L 1.53125 -5.289062 L 0.207031 -5.289062 L 0.207031 0 Z M 1.53125 0 "/></g></g></g><g fill="#000000" fill-opacity="1"><g transform="translate(144.037076, 227.805547)"><g><path d="M 4.089844 0 L 4.089844 -5.289062 L 0.117188 -5.289062 L 0.117188 -4.074219 L 0.378906 -4.074219 L 0.378906 0 L 1.441406 0 L 1.441406 -4.074219 L 2.765625 -4.074219 L 2.765625 0 Z M 4.089844 0 "/></g></g></g><g fill="#000000" fill-opacity="1"><g transform="translate(150.99032, 227.805547)"><g><path d="M 4.179688 0 L 4.179688 -2.078125 L 2.855469 -2.078125 L 2.855469 -1.207031 L 1.53125 -1.207031 L 1.53125 -4.074219 L 4.179688 -4.074219 L 4.179688 -5.289062 L 0.207031 -5.289062 L 0.207031 0 Z M 4.179688 0 "/></g></g></g><g fill="#0652e9" fill-opacity="1"><g transform="translate(172.934511, 158.43749)"><g><path d="M 11.113281 0.257812 C 14.945312 0.257812 18.265625 -1.902344 19.90625 -5.058594 L 16.234375 -6.957031 C 15.300781 -5.121094 13.402344 -3.898438 11.113281 -3.898438 C 7.859375 -3.898438 5.378906 -6.410156 5.378906 -9.664062 C 5.378906 -12.917969 7.859375 -15.429688 11.113281 -15.429688 C 13.402344 -15.429688 15.300781 -14.207031 16.234375 -12.371094 L 19.90625 -14.269531 C 18.265625 -17.425781 14.945312 -19.585938 11.113281 -19.585938 C 5.636719 -19.585938 1.191406 -15.140625 1.191406 -9.664062 C 1.191406 -4.1875 5.636719 0.257812 11.113281 0.257812 Z M 11.113281 0.257812 "/></g></g></g><g fill="#000000" fill-opacity="1"><g transform="translate(194.813416, 158.43749)"><g><path d="M 8.183594 0.257812 C 12.5 0.257812 15.332031 -2.578125 15.332031 -6.441406 C 15.332031 -10.308594 12.5 -13.144531 8.183594 -13.144531 C 3.867188 -13.144531 1 -10.308594 1 -6.441406 C 1 -2.578125 3.867188 0.257812 8.183594 0.257812 Z M 8.183594 -3.382812 C 6.410156 -3.414062 5.121094 -4.703125 5.121094 -6.441406 C 5.121094 -8.183594 6.410156 -9.46875 8.183594 -9.503906 C 9.921875 -9.46875 11.242188 -8.183594 11.242188 -6.441406 C 11.242188 -4.703125 9.921875 -3.414062 8.183594 -3.382812 Z M 8.183594 -3.382812 "/></g></g></g><g fill="#000000" fill-opacity="1"><g transform="translate(212.31103, 158.43749)"><g><path d="M 17.265625 -13.144531 C 15.429688 -13.144531 14.011719 -12.304688 13.207031 -10.886719 C 12.464844 -12.242188 11.179688 -13.144531 9.535156 -13.144531 C 8.054688 -13.144531 6.859375 -12.433594 6.023438 -11.304688 L 6.023438 -12.886719 L 1.902344 -12.886719 L 1.902344 0 L 6.023438 0 L 6.023438 -7.472656 C 6.023438 -8.40625 6.605469 -9.503906 7.859375 -9.503906 C 8.988281 -9.503906 9.726562 -8.601562 9.726562 -7.472656 L 9.726562 0 L 13.851562 0 L 13.851562 -7.472656 C 13.851562 -8.40625 14.429688 -9.503906 15.6875 -9.503906 C 16.816406 -9.503906 17.589844 -8.601562 17.589844 -7.472656 L 17.589844 0 L 21.679688 0 L 21.679688 -8.148438 C 21.679688 -11.144531 20.101562 -13.144531 17.265625 -13.144531 Z M 17.265625 -13.144531 "/></g></g></g><g fill="#000000" fill-opacity="1"><g transform="translate(236.766412, 158.43749)"><g><path d="M 9.695312 -13.144531 C 8.214844 -13.144531 6.988281 -12.628906 6.023438 -11.757812 L 6.023438 -12.851562 L 1.902344 -12.886719 L 1.902344 7.730469 L 6.023438 7.761719 L 6.023438 -1.128906 C 6.988281 -0.257812 8.214844 0.257812 9.695312 0.257812 C 13.238281 0.257812 16.042969 -2.707031 16.042969 -6.441406 C 16.042969 -10.179688 13.238281 -13.144531 9.695312 -13.144531 Z M 8.890625 -3.382812 C 7.183594 -3.382812 5.832031 -4.734375 5.832031 -6.441406 C 5.832031 -8.148438 7.183594 -9.503906 8.890625 -9.503906 C 10.597656 -9.503906 11.949219 -8.148438 11.949219 -6.441406 C 11.949219 -4.734375 10.597656 -3.382812 8.890625 -3.382812 Z M 8.890625 -3.382812 "/></g></g></g><g fill="#000000" fill-opacity="1"><g transform="translate(254.940475, 158.43749)"><g><path d="M 15.011719 -6.476562 C 15.011719 -10.5 12.242188 -13.175781 8.085938 -13.175781 C 3.929688 -13.175781 1 -10.46875 1 -6.441406 C 1 -2.414062 3.898438 0.257812 8.214844 0.257812 C 11.789062 0.257812 14.171875 -1.644531 14.816406 -4.445312 L 10.855469 -4.445312 C 10.5 -3.414062 9.566406 -2.800781 8.148438 -2.800781 C 6.28125 -2.800781 5.316406 -3.929688 5.152344 -5.765625 L 15.011719 -5.765625 Z M 8.148438 -10.019531 C 9.535156 -10.019531 10.339844 -9.375 10.757812 -8.246094 L 5.410156 -8.246094 C 5.832031 -9.339844 6.699219 -10.019531 8.148438 -10.019531 Z M 8.148438 -10.019531 "/></g></g></g><g fill="#000000" fill-opacity="1"><g transform="translate(272.051554, 158.43749)"><g><path d="M 9.664062 -9.695312 L 9.664062 -12.886719 L 6.605469 -12.886719 L 6.605469 -17.847656 L 2.511719 -17.847656 L 2.511719 -12.886719 L 0.355469 -12.886719 L 0.355469 -9.695312 L 2.511719 -9.695312 L 2.511719 -4.605469 C 2.511719 -1.867188 4.832031 0.257812 7.570312 0.257812 C 8.441406 0.257812 9.308594 0.0625 9.632812 -0.160156 L 9.632812 -3.351562 L 8.085938 -3.351562 C 7.214844 -3.351562 6.605469 -4.027344 6.605469 -5.089844 L 6.605469 -9.695312 Z M 9.664062 -9.695312 "/></g></g></g><g fill="#000000" fill-opacity="1"><g transform="translate(283.493334, 158.43749)"><g><path d="M 4.027344 -15.042969 C 5.25 -15.042969 6.28125 -16.074219 6.28125 -17.296875 C 6.28125 -18.554688 5.25 -19.554688 4.027344 -19.554688 C 2.800781 -19.554688 1.773438 -18.554688 1.773438 -17.296875 C 1.773438 -16.074219 2.800781 -15.042969 4.027344 -15.042969 Z M 1.964844 0 L 6.054688 0 L 6.054688 -12.886719 L 1.964844 -12.886719 Z M 1.964844 0 "/></g></g></g><g fill="#000000" fill-opacity="1"><g transform="translate(292.680284, 158.43749)"><g><path d="M 9.664062 -9.695312 L 9.664062 -12.886719 L 6.605469 -12.886719 L 6.605469 -17.847656 L 2.511719 -17.847656 L 2.511719 -12.886719 L 0.355469 -12.886719 L 0.355469 -9.695312 L 2.511719 -9.695312 L 2.511719 -4.605469 C 2.511719 -1.867188 4.832031 0.257812 7.570312 0.257812 C 8.441406 0.257812 9.308594 0.0625 9.632812 -0.160156 L 9.632812 -3.351562 L 8.085938 -3.351562 C 7.214844 -3.351562 6.605469 -4.027344 6.605469 -5.089844 L 6.605469 -9.695312 Z M 9.664062 -9.695312 "/></g></g></g><g fill="#000000" fill-opacity="1"><g transform="translate(304.122063, 158.43749)"><g><path d="M 4.027344 -15.042969 C 5.25 -15.042969 6.28125 -16.074219 6.28125 -17.296875 C 6.28125 -18.554688 5.25 -19.554688 4.027344 -19.554688 C 2.800781 -19.554688 1.773438 -18.554688 1.773438 -17.296875 C 1.773438 -16.074219 2.800781 -15.042969 4.027344 -15.042969 Z M 1.964844 0 L 6.054688 0 L 6.054688 -12.886719 L 1.964844 -12.886719 Z M 1.964844 0 "/></g></g></g><g fill="#000000" fill-opacity="1"><g transform="translate(313.309013, 158.43749)"><g><path d="M 9.664062 -12.886719 L 6.957031 -4.414062 L 4.21875 -12.886719 L -0.160156 -12.886719 L 4.992188 0 L 8.859375 0 L 14.078125 -12.886719 Z M 9.664062 -12.886719 "/></g></g></g><g fill="#000000" fill-opacity="1"><g transform="translate(328.358531, 158.43749)"><g><path d="M 15.011719 -6.476562 C 15.011719 -10.5 12.242188 -13.175781 8.085938 -13.175781 C 3.929688 -13.175781 1 -10.46875 1 -6.441406 C 1 -2.414062 3.898438 0.257812 8.214844 0.257812 C 11.789062 0.257812 14.171875 -1.644531 14.816406 -4.445312 L 10.855469 -4.445312 C 10.5 -3.414062 9.566406 -2.800781 8.148438 -2.800781 C 6.28125 -2.800781 5.316406 -3.929688 5.152344 -5.765625 L 15.011719 -5.765625 Z M 8.148438 -10.019531 C 9.535156 -10.019531 10.339844 -9.375 10.757812 -8.246094 L 5.410156 -8.246094 C 5.832031 -9.339844 6.699219 -10.019531 8.148438 -10.019531 Z M 8.148438 -10.019531 "/></g></g></g><g fill="#62e1e9" fill-opacity="1"><g transform="translate(172.934511, 195.187487)"><g><path d="M 10.113281 -19.328125 L 1.902344 -19.328125 L 1.902344 0 L 6.152344 0 L 6.152344 -7.828125 L 10.113281 -7.828125 C 13.367188 -7.828125 15.878906 -10.242188 15.878906 -13.496094 C 15.878906 -16.71875 13.367188 -19.328125 10.113281 -19.328125 Z M 9.4375 -11.339844 L 6.152344 -11.339844 L 6.152344 -15.589844 L 9.4375 -15.589844 C 10.792969 -15.589844 11.820312 -14.722656 11.820312 -13.464844 C 11.820312 -12.175781 10.792969 -11.339844 9.4375 -11.339844 Z M 9.4375 -11.339844 "/></g></g></g><g fill="#000000" fill-opacity="1"><g transform="translate(190.079041, 195.187487)"><g><path d="M 9.632812 -13.144531 C 8.117188 -13.144531 6.859375 -12.371094 6.023438 -11.113281 L 6.023438 -12.886719 L 1.902344 -12.886719 L 1.902344 0 L 6.023438 0 L 6.023438 -6.152344 C 6.023438 -8.277344 7.472656 -9.503906 9.503906 -9.503906 C 9.984375 -9.503906 10.40625 -9.4375 10.695312 -9.375 L 10.695312 -13.015625 C 10.40625 -13.109375 10.019531 -13.144531 9.632812 -13.144531 Z M 9.632812 -13.144531 "/></g></g></g><g fill="#000000" fill-opacity="1"><g transform="translate(201.842937, 195.187487)"><g><path d="M 8.183594 0.257812 C 12.5 0.257812 15.332031 -2.578125 15.332031 -6.441406 C 15.332031 -10.308594 12.5 -13.144531 8.183594 -13.144531 C 3.867188 -13.144531 1 -10.308594 1 -6.441406 C 1 -2.578125 3.867188 0.257812 8.183594 0.257812 Z M 8.183594 -3.382812 C 6.410156 -3.414062 5.121094 -4.703125 5.121094 -6.441406 C 5.121094 -8.183594 6.410156 -9.46875 8.183594 -9.503906 C 9.921875 -9.46875 11.242188 -8.183594 11.242188 -6.441406 C 11.242188 -4.703125 9.921875 -3.414062 8.183594 -3.382812 Z M 8.183594 -3.382812 "/></g></g></g><g fill="#000000" fill-opacity="1"><g transform="translate(219.340551, 195.187487)"><g><path d="M 15.527344 -12.886719 L 11.402344 -12.886719 L 11.402344 -11.597656 C 10.339844 -12.5625 8.953125 -13.144531 7.375 -13.144531 C 3.800781 -13.144531 1 -10.210938 1 -6.441406 C 1 -2.707031 3.800781 0.257812 7.375 0.257812 C 8.988281 0.257812 10.40625 -0.355469 11.46875 -1.351562 L 11.46875 0.355469 C 11.46875 2.738281 10.148438 4.1875 8.054688 4.1875 C 6.570312 4.1875 5.445312 3.382812 4.960938 2.09375 L 1.191406 3.609375 C 2.253906 6.25 4.671875 7.761719 8.054688 7.761719 C 12.757812 7.761719 15.558594 4.894531 15.558594 0.128906 Z M 8.40625 -3.382812 C 6.699219 -3.382812 5.347656 -4.734375 5.347656 -6.441406 C 5.347656 -8.148438 6.699219 -9.503906 8.40625 -9.503906 C 10.113281 -9.503906 11.5 -8.148438 11.5 -6.441406 C 11.5 -4.734375 10.113281 -3.382812 8.40625 -3.382812 Z M 8.40625 -3.382812 "/></g></g></g><g fill="#000000" fill-opacity="1"><g transform="translate(237.965581, 195.187487)"><g><path d="M 9.632812 -13.144531 C 8.117188 -13.144531 6.859375 -12.371094 6.023438 -11.113281 L 6.023438 -12.886719 L 1.902344 -12.886719 L 1.902344 0 L 6.023438 0 L 6.023438 -6.152344 C 6.023438 -8.277344 7.472656 -9.503906 9.503906 -9.503906 C 9.984375 -9.503906 10.40625 -9.4375 10.695312 -9.375 L 10.695312 -13.015625 C 10.40625 -13.109375 10.019531 -13.144531 9.632812 -13.144531 Z M 9.632812 -13.144531 "/></g></g></g><g fill="#000000" fill-opacity="1"><g transform="translate(249.729477, 195.187487)"><g><path d="M 16.265625 -3.351562 C 15.71875 -3.351562 15.140625 -3.542969 15.140625 -4.605469 L 15.140625 -12.886719 L 11.050781 -12.886719 L 11.050781 -11.757812 C 10.082031 -12.628906 8.859375 -13.144531 7.375 -13.144531 C 3.800781 -13.144531 1 -10.179688 1 -6.441406 C 1 -2.707031 3.800781 0.257812 7.375 0.257812 C 9.246094 0.257812 10.757812 -0.578125 11.789062 -1.933594 C 12.59375 -0.613281 14.011719 0.257812 15.75 0.257812 C 16.171875 0.257812 16.558594 0.128906 16.847656 0 L 16.847656 -3.351562 Z M 8.183594 -3.382812 C 6.476562 -3.382812 5.121094 -4.734375 5.121094 -6.441406 C 5.121094 -8.148438 6.476562 -9.503906 8.183594 -9.503906 C 9.855469 -9.503906 11.242188 -8.148438 11.242188 -6.441406 C 11.242188 -4.734375 9.855469 -3.382812 8.183594 -3.382812 Z M 8.183594 -3.382812 "/></g></g></g><g fill="#000000" fill-opacity="1"><g transform="translate(268.193453, 195.187487)"><g><path d="M 17.265625 -13.144531 C 15.429688 -13.144531 14.011719 -12.304688 13.207031 -10.886719 C 12.464844 -12.242188 11.179688 -13.144531 9.535156 -13.144531 C 8.054688 -13.144531 6.859375 -12.433594 6.023438 -11.304688 L 6.023438 -12.886719 L 1.902344 -12.886719 L 1.902344 0 L 6.023438 0 L 6.023438 -7.472656 C 6.023438 -8.40625 6.605469 -9.503906 7.859375 -9.503906 C 8.988281 -9.503906 9.726562 -8.601562 9.726562 -7.472656 L 9.726562 0 L 13.851562 0 L 13.851562 -7.472656 C 13.851562 -8.40625 14.429688 -9.503906 15.6875 -9.503906 C 16.816406 -9.503906 17.589844 -8.601562 17.589844 -7.472656 L 17.589844 0 L 21.679688 0 L 21.679688 -8.148438 C 21.679688 -11.144531 20.101562 -13.144531 17.265625 -13.144531 Z M 17.265625 -13.144531 "/></g></g></g><g fill="#000000" fill-opacity="1"><g transform="translate(292.648835, 195.187487)"><g><path d="M 17.265625 -13.144531 C 15.429688 -13.144531 14.011719 -12.304688 13.207031 -10.886719 C 12.464844 -12.242188 11.179688 -13.144531 9.535156 -13.144531 C 8.054688 -13.144531 6.859375 -12.433594 6.023438 -11.304688 L 6.023438 -12.886719 L 1.902344 -12.886719 L 1.902344 0 L 6.023438 0 L 6.023438 -7.472656 C 6.023438 -8.40625 6.605469 -9.503906 7.859375 -9.503906 C 8.988281 -9.503906 9.726562 -8.601562 9.726562 -7.472656 L 9.726562 0 L 13.851562 0 L 13.851562 -7.472656 C 13.851562 -8.40625 14.429688 -9.503906 15.6875 -9.503906 C 16.816406 -9.503906 17.589844 -8.601562 17.589844 -7.472656 L 17.589844 0 L 21.679688 0 L 21.679688 -8.148438 C 21.679688 -11.144531 20.101562 -13.144531 17.265625 -13.144531 Z M 17.265625 -13.144531 "/></g></g></g><g fill="#000000" fill-opacity="1"><g transform="translate(317.104217, 195.187487)"><g><path d="M 4.027344 -15.042969 C 5.25 -15.042969 6.28125 -16.074219 6.28125 -17.296875 C 6.28125 -18.554688 5.25 -19.554688 4.027344 -19.554688 C 2.800781 -19.554688 1.773438 -18.554688 1.773438 -17.296875 C 1.773438 -16.074219 2.800781 -15.042969 4.027344 -15.042969 Z M 1.964844 0 L 6.054688 0 L 6.054688 -12.886719 L 1.964844 -12.886719 Z M 1.964844 0 "/></g></g></g><g fill="#000000" fill-opacity="1"><g transform="translate(326.291167, 195.187487)"><g><path d="M 9.695312 -13.144531 C 8.214844 -13.144531 6.925781 -12.433594 6.023438 -11.304688 L 6.023438 -12.886719 L 1.902344 -12.886719 L 1.902344 0 L 6.023438 0 L 6.023438 -7.472656 C 6.023438 -8.632812 6.988281 -9.503906 8.183594 -9.503906 C 9.375 -9.503906 10.210938 -8.632812 10.210938 -7.472656 L 10.210938 0 L 14.300781 0 L 14.300781 -8.148438 C 14.300781 -10.984375 12.242188 -13.144531 9.695312 -13.144531 Z M 9.695312 -13.144531 "/></g></g></g><g fill="#000000" fill-opacity="1"><g transform="translate(343.370031, 195.187487)"><g><path d="M 15.527344 -12.886719 L 11.402344 -12.886719 L 11.402344 -11.597656 C 10.339844 -12.5625 8.953125 -13.144531 7.375 -13.144531 C 3.800781 -13.144531 1 -10.210938 1 -6.441406 C 1 -2.707031 3.800781 0.257812 7.375 0.257812 C 8.988281 0.257812 10.40625 -0.355469 11.46875 -1.351562 L 11.46875 0.355469 C 11.46875 2.738281 10.148438 4.1875 8.054688 4.1875 C 6.570312 4.1875 5.445312 3.382812 4.960938 2.09375 L 1.191406 3.609375 C 2.253906 6.25 4.671875 7.761719 8.054688 7.761719 C 12.757812 7.761719 15.558594 4.894531 15.558594 0.128906 Z M 8.40625 -3.382812 C 6.699219 -3.382812 5.347656 -4.734375 5.347656 -6.441406 C 5.347656 -8.148438 6.699219 -9.503906 8.40625 -9.503906 C 10.113281 -9.503906 11.5 -8.148438 11.5 -6.441406 C 11.5 -4.734375 10.113281 -3.382812 8.40625 -3.382812 Z M 8.40625 -3.382812 "/></g></g></g><g fill="#ffffff" fill-opacity="1"><g transform="translate(362.004811, 195.187487)"><g/></g></g><g fill="#000000" fill-opacity="1"><g transform="translate(172.934511, 231.937485)"><g><path d="M 11.113281 0.257812 C 14.945312 0.257812 18.265625 -1.902344 19.90625 -5.058594 L 16.234375 -6.957031 C 15.300781 -5.121094 13.402344 -3.898438 11.113281 -3.898438 C 7.859375 -3.898438 5.378906 -6.410156 5.378906 -9.664062 C 5.378906 -12.917969 7.859375 -15.429688 11.113281 -15.429688 C 13.402344 -15.429688 15.300781 -14.207031 16.234375 -12.371094 L 19.90625 -14.269531 C 18.265625 -17.425781 14.945312 -19.585938 11.113281 -19.585938 C 5.636719 -19.585938 1.191406 -15.140625 1.191406 -9.664062 C 1.191406 -4.1875 5.636719 0.257812 11.113281 0.257812 Z M 11.113281 0.257812 "/></g></g></g><g fill="#000000" fill-opacity="1"><g transform="translate(194.812946, 231.937485)"><g><path d="M 1.902344 0 L 6.023438 0 L 6.023438 -22.066406 L 1.902344 -22.066406 Z M 1.902344 0 "/></g></g></g><g fill="#000000" fill-opacity="1"><g transform="translate(203.871047, 231.937485)"><g><path d="M 7.667969 0.257812 C 11.5625 0.257812 13.722656 -1.773438 13.722656 -4.929688 L 13.722656 -12.886719 L 9.632812 -12.886719 L 9.632812 -5.476562 C 9.632812 -4.253906 8.792969 -3.382812 7.667969 -3.382812 C 6.570312 -3.382812 5.734375 -4.253906 5.734375 -5.476562 L 5.734375 -12.886719 L 1.609375 -12.886719 L 1.609375 -4.929688 C 1.609375 -1.773438 3.769531 0.257812 7.667969 0.257812 Z M 7.667969 0.257812 "/></g></g></g><g fill="#000000" fill-opacity="1"><g transform="translate(220.370097, 231.937485)"><g><path d="M 9.695312 -13.144531 C 8.214844 -13.144531 6.988281 -12.628906 6.023438 -11.757812 L 6.023438 -22.066406 L 1.902344 -22.066406 L 1.902344 0 L 6.023438 0.03125 L 6.023438 -1.128906 C 6.988281 -0.257812 8.214844 0.257812 9.695312 0.257812 C 13.238281 0.257812 16.042969 -2.707031 16.042969 -6.441406 C 16.042969 -10.179688 13.238281 -13.144531 9.695312 -13.144531 Z M 8.890625 -3.382812 C 7.183594 -3.382812 5.832031 -4.734375 5.832031 -6.441406 C 5.832031 -8.148438 7.183594 -9.503906 8.890625 -9.503906 C 10.597656 -9.503906 11.949219 -8.148438 11.949219 -6.441406 C 11.949219 -4.734375 10.597656 -3.382812 8.890625 -3.382812 Z M 8.890625 -3.382812 "/></g></g></g></svg>