<svg xmlns="http://www.w3.org/2000/svg" xmlns:xlink="http://www.w3.org/1999/xlink" width="500" zoomAndPan="magnify" viewBox="0 0 375 374.999991" height="500" preserveAspectRatio="xMidYMid meet" version="1.0"><defs><g/><clipPath id="0a7392bac1"><path d="M 119.308594 140 L 188 140 L 188 200.019531 L 119.308594 200.019531 Z M 119.308594 140 " clip-rule="nonzero"/></clipPath><clipPath id="8e1736f438"><path d="M 187 108.519531 L 255.808594 108.519531 L 255.808594 169 L 187 169 Z M 187 108.519531 " clip-rule="nonzero"/></clipPath></defs><g clip-path="url(#0a7392bac1)"><path fill="#0652e9" d="M 165.230469 182.664062 L 165.230469 190.964844 L 127.636719 173.5 L 127.636719 166.765625 L 165.230469 149.296875 L 165.230469 157.601562 L 136.800781 170.054688 L 136.800781 170.210938 Z M 187.558594 140.074219 L 124.6875 140.074219 C 121.71875 140.074219 119.3125 142.480469 119.3125 145.449219 L 119.3125 194.816406 C 119.3125 197.785156 121.71875 200.191406 124.6875 200.191406 L 170.105469 200.191406 L 187.558594 140.074219 " fill-opacity="1" fill-rule="nonzero"/></g><g clip-path="url(#8e1736f438)"><path fill="#38b6ff" d="M 247.378906 142.210938 L 209.785156 159.441406 L 209.785156 151.136719 L 238.839844 138.683594 L 238.839844 138.527344 L 209.785156 126.074219 L 209.785156 117.773438 L 247.378906 135.003906 Z M 205.011719 108.546875 L 187.558594 168.664062 L 250.328125 168.664062 C 253.292969 168.664062 255.699219 166.257812 255.699219 163.289062 L 255.699219 113.921875 C 255.699219 110.953125 253.292969 108.546875 250.328125 108.546875 L 205.011719 108.546875 " fill-opacity="1" fill-rule="nonzero"/></g><g fill="#000000" fill-opacity="1"><g transform="translate(126.524271, 121.921718)"><g><path d="M 3.6875 0 L 3.6875 -1.0625 L 1.351562 -1.0625 L 1.351562 -3.597656 L 3.6875 -3.597656 L 3.6875 -4.667969 L 0.183594 -4.667969 L 0.183594 0 Z M 3.6875 0 "/></g></g></g><g fill="#000000" fill-opacity="1"><g transform="translate(132.698604, 121.921718)"><g><path d="M 3.6875 0 L 3.6875 -4.667969 L 0.183594 -4.667969 L 0.183594 0 Z M 2.519531 -1.0625 L 1.351562 -1.0625 L 1.351562 -3.597656 L 2.519531 -3.597656 Z M 2.519531 -1.0625 "/></g></g></g><g fill="#000000" fill-opacity="1"><g transform="translate(138.914944, 121.921718)"><g><path d="M 4.773438 0 L 4.773438 -4.667969 L 0.105469 -4.667969 L 0.105469 -3.597656 L 0.335938 -3.597656 L 0.335938 0 L 1.273438 0 L 1.273438 -3.597656 L 1.855469 -3.597656 L 1.855469 0 L 3.023438 0 L 3.023438 -3.597656 L 3.605469 -3.597656 L 3.605469 0 Z M 4.773438 0 "/></g></g></g><g fill="#000000" fill-opacity="1"><g transform="translate(146.216346, 121.921718)"><g><path d="M 3.6875 -1.300781 L 3.6875 -4.667969 L 0.183594 -4.667969 L 0.183594 0 L 1.351562 0 L 1.351562 -1.300781 Z M 2.519531 -2.367188 L 1.351562 -2.367188 L 1.351562 -3.597656 L 2.519531 -3.597656 Z M 2.519531 -2.367188 "/></g></g></g><g fill="#000000" fill-opacity="1"><g transform="translate(152.411687, 121.921718)"><g><path d="M 3.675781 0 L 3.675781 -1.0625 L 1.351562 -1.0625 L 1.351562 -1.835938 L 3.675781 -1.835938 L 3.675781 -2.863281 L 1.351562 -2.863281 L 1.351562 -3.597656 L 3.675781 -3.597656 L 3.675781 -4.667969 L 0.183594 -4.667969 L 0.183594 0 Z M 3.675781 0 "/></g></g></g><g fill="#000000" fill-opacity="1"><g transform="translate(158.614024, 121.921718)"><g><path d="M 3.613281 -3.597656 L 3.613281 -4.667969 L 0.105469 -4.667969 L 0.105469 -3.597656 L 1.28125 -3.597656 L 1.28125 0 L 2.449219 0 L 2.449219 -3.597656 Z M 3.613281 -3.597656 "/></g></g></g><g fill="#000000" fill-opacity="1"><g transform="translate(164.676351, 121.921718)"><g><path d="M 1.351562 0 L 1.351562 -4.667969 L 0.183594 -4.667969 L 0.183594 0 Z M 1.351562 0 "/></g></g></g><g fill="#000000" fill-opacity="1"><g transform="translate(168.554556, 121.921718)"><g><path d="M 3.613281 -3.597656 L 3.613281 -4.667969 L 0.105469 -4.667969 L 0.105469 -3.597656 L 1.28125 -3.597656 L 1.28125 0 L 2.449219 0 L 2.449219 -3.597656 Z M 3.613281 -3.597656 "/></g></g></g><g fill="#000000" fill-opacity="1"><g transform="translate(174.616885, 121.921718)"><g><path d="M 1.351562 0 L 1.351562 -4.667969 L 0.183594 -4.667969 L 0.183594 0 Z M 1.351562 0 "/></g></g></g><g fill="#000000" fill-opacity="1"><g transform="translate(178.495089, 121.921718)"><g><path d="M 3.84375 -3.597656 L 3.84375 -4.667969 L 2.441406 -4.667969 L 2.441406 -1.0625 L 1.503906 -1.0625 L 1.503906 -4.667969 L 0.105469 -4.667969 L 0.105469 -3.597656 L 0.335938 -3.597656 L 0.335938 0 L 3.613281 0 L 3.613281 -3.597656 Z M 3.84375 -3.597656 "/></g></g></g><g fill="#000000" fill-opacity="1"><g transform="translate(184.788432, 121.921718)"><g><path d="M 3.675781 0 L 3.675781 -1.0625 L 1.351562 -1.0625 L 1.351562 -1.835938 L 3.675781 -1.835938 L 3.675781 -2.863281 L 1.351562 -2.863281 L 1.351562 -3.597656 L 3.675781 -3.597656 L 3.675781 -4.667969 L 0.183594 -4.667969 L 0.183594 0 Z M 3.675781 0 "/></g></g></g><g fill="#000000" fill-opacity="1"><g transform="translate(184.510207, 190.008801)"><g><path d="M 3.6875 -1.300781 L 3.6875 -4.667969 L 0.183594 -4.667969 L 0.183594 0 L 1.351562 0 L 1.351562 -1.300781 Z M 2.519531 -2.367188 L 1.351562 -2.367188 L 1.351562 -3.597656 L 2.519531 -3.597656 Z M 2.519531 -2.367188 "/></g></g></g><g fill="#000000" fill-opacity="1"><g transform="translate(190.705548, 190.008801)"><g><path d="M 3.6875 0 L 3.003906 -1.300781 L 3.6875 -1.300781 L 3.6875 -4.667969 L 0.183594 -4.667969 L 0.183594 0 L 1.351562 0 L 1.351562 -1.300781 L 1.855469 -1.300781 L 2.519531 0 Z M 2.519531 -2.367188 L 1.351562 -2.367188 L 1.351562 -3.597656 L 2.519531 -3.597656 Z M 2.519531 -2.367188 "/></g></g></g><g fill="#000000" fill-opacity="1"><g transform="translate(196.921887, 190.008801)"><g><path d="M 3.6875 0 L 3.6875 -4.667969 L 0.183594 -4.667969 L 0.183594 0 Z M 2.519531 -1.0625 L 1.351562 -1.0625 L 1.351562 -3.597656 L 2.519531 -3.597656 Z M 2.519531 -1.0625 "/></g></g></g><g fill="#000000" fill-opacity="1"><g transform="translate(203.138226, 190.008801)"><g><path d="M 3.6875 0 L 3.6875 -1.835938 L 2.519531 -1.835938 L 2.519531 -1.0625 L 1.351562 -1.0625 L 1.351562 -3.597656 L 3.6875 -3.597656 L 3.6875 -4.667969 L 0.183594 -4.667969 L 0.183594 0 Z M 3.6875 0 "/></g></g></g><g fill="#000000" fill-opacity="1"><g transform="translate(209.354565, 190.008801)"><g><path d="M 3.6875 0 L 3.003906 -1.300781 L 3.6875 -1.300781 L 3.6875 -4.667969 L 0.183594 -4.667969 L 0.183594 0 L 1.351562 0 L 1.351562 -1.300781 L 1.855469 -1.300781 L 2.519531 0 Z M 2.519531 -2.367188 L 1.351562 -2.367188 L 1.351562 -3.597656 L 2.519531 -3.597656 Z M 2.519531 -2.367188 "/></g></g></g><g fill="#000000" fill-opacity="1"><g transform="translate(215.570904, 190.008801)"><g><path d="M 3.6875 0 L 3.6875 -4.667969 L 0.183594 -4.667969 L 0.183594 0 L 1.351562 0 L 1.351562 -1.300781 L 2.519531 -1.300781 L 2.519531 0 Z M 2.519531 -2.367188 L 1.351562 -2.367188 L 1.351562 -3.597656 L 2.519531 -3.597656 Z M 2.519531 -2.367188 "/></g></g></g><g fill="#000000" fill-opacity="1"><g transform="translate(221.787243, 190.008801)"><g><path d="M 4.773438 0 L 4.773438 -4.667969 L 0.105469 -4.667969 L 0.105469 -3.597656 L 0.335938 -3.597656 L 0.335938 0 L 1.273438 0 L 1.273438 -3.597656 L 1.855469 -3.597656 L 1.855469 0 L 3.023438 0 L 3.023438 -3.597656 L 3.605469 -3.597656 L 3.605469 0 Z M 4.773438 0 "/></g></g></g><g fill="#000000" fill-opacity="1"><g transform="translate(229.088644, 190.008801)"><g><path d="M 4.773438 0 L 4.773438 -4.667969 L 0.105469 -4.667969 L 0.105469 -3.597656 L 0.335938 -3.597656 L 0.335938 0 L 1.273438 0 L 1.273438 -3.597656 L 1.855469 -3.597656 L 1.855469 0 L 3.023438 0 L 3.023438 -3.597656 L 3.605469 -3.597656 L 3.605469 0 Z M 4.773438 0 "/></g></g></g><g fill="#000000" fill-opacity="1"><g transform="translate(236.390049, 190.008801)"><g><path d="M 1.351562 0 L 1.351562 -4.667969 L 0.183594 -4.667969 L 0.183594 0 Z M 1.351562 0 "/></g></g></g><g fill="#000000" fill-opacity="1"><g transform="translate(240.268253, 190.008801)"><g><path d="M 3.613281 0 L 3.613281 -4.667969 L 0.105469 -4.667969 L 0.105469 -3.597656 L 0.335938 -3.597656 L 0.335938 0 L 1.273438 0 L 1.273438 -3.597656 L 2.441406 -3.597656 L 2.441406 0 Z M 3.613281 0 "/></g></g></g><g fill="#000000" fill-opacity="1"><g transform="translate(246.407584, 190.008801)"><g><path d="M 3.6875 0 L 3.6875 -1.835938 L 2.519531 -1.835938 L 2.519531 -1.0625 L 1.351562 -1.0625 L 1.351562 -3.597656 L 3.6875 -3.597656 L 3.6875 -4.667969 L 0.183594 -4.667969 L 0.183594 0 Z M 3.6875 0 "/></g></g></g><g fill="#000000" fill-opacity="1"><g transform="translate(126.456112, 233.621351)"><g><path d="M 12.074219 0.28125 C 16.238281 0.28125 19.84375 -2.066406 21.628906 -5.496094 L 17.636719 -7.558594 C 16.625 -5.566406 14.558594 -4.234375 12.074219 -4.234375 C 8.539062 -4.234375 5.84375 -6.964844 5.84375 -10.5 C 5.84375 -14.035156 8.539062 -16.761719 12.074219 -16.761719 C 14.558594 -16.761719 16.625 -15.433594 17.636719 -13.4375 L 21.628906 -15.503906 C 19.84375 -18.933594 16.238281 -21.277344 12.074219 -21.277344 C 6.125 -21.277344 1.292969 -16.449219 1.292969 -10.5 C 1.292969 -4.550781 6.125 0.28125 12.074219 0.28125 Z M 12.074219 0.28125 "/></g></g></g><g fill="#000000" fill-opacity="1"><g transform="translate(150.224996, 233.621351)"><g><path d="M 10.988281 -21 L 2.066406 -21 L 2.066406 0 L 6.683594 0 L 6.683594 -8.503906 L 10.988281 -8.503906 C 14.523438 -8.503906 17.253906 -11.128906 17.253906 -14.664062 C 17.253906 -18.164062 14.523438 -21 10.988281 -21 Z M 10.253906 -12.320312 L 6.683594 -12.320312 L 6.683594 -16.9375 L 10.253906 -16.9375 C 11.722656 -16.9375 12.84375 -15.992188 12.84375 -14.628906 C 12.84375 -13.230469 11.722656 -12.320312 10.253906 -12.320312 Z M 10.253906 -12.320312 "/></g></g></g><g fill="#000000" fill-opacity="1"><g transform="translate(168.849589, 233.621351)"><g/></g></g><g fill="#000000" fill-opacity="1"><g transform="translate(178.48043, 233.621351)"><g><path d="M 12.074219 0.28125 C 16.238281 0.28125 19.84375 -2.066406 21.628906 -5.496094 L 17.636719 -7.558594 C 16.625 -5.566406 14.558594 -4.234375 12.074219 -4.234375 C 8.539062 -4.234375 5.84375 -6.964844 5.84375 -10.5 C 5.84375 -14.035156 8.539062 -16.761719 12.074219 -16.761719 C 14.558594 -16.761719 16.625 -15.433594 17.636719 -13.4375 L 21.628906 -15.503906 C 19.84375 -18.933594 16.238281 -21.277344 12.074219 -21.277344 C 6.125 -21.277344 1.292969 -16.449219 1.292969 -10.5 C 1.292969 -4.550781 6.125 0.28125 12.074219 0.28125 Z M 12.074219 0.28125 "/></g></g></g><g fill="#000000" fill-opacity="1"><g transform="translate(202.249315, 233.621351)"><g><path d="M 2.066406 0 L 6.542969 0 L 6.542969 -23.972656 L 2.066406 -23.972656 Z M 2.066406 0 "/></g></g></g><g fill="#000000" fill-opacity="1"><g transform="translate(212.090134, 233.621351)"><g><path d="M 8.328125 0.28125 C 12.5625 0.28125 14.910156 -1.925781 14.910156 -5.355469 L 14.910156 -14 L 10.464844 -14 L 10.464844 -5.949219 C 10.464844 -4.621094 9.554688 -3.675781 8.328125 -3.675781 C 7.140625 -3.675781 6.230469 -4.621094 6.230469 -5.949219 L 6.230469 -14 L 1.75 -14 L 1.75 -5.355469 C 1.75 -1.925781 4.09375 0.28125 8.328125 0.28125 Z M 8.328125 0.28125 "/></g></g></g><g fill="#000000" fill-opacity="1"><g transform="translate(230.014826, 233.621351)"><g><path d="M 10.535156 -14.277344 C 8.925781 -14.277344 7.59375 -13.71875 6.542969 -12.773438 L 6.542969 -23.972656 L 2.066406 -23.972656 L 2.066406 0 L 6.542969 0.0351562 L 6.542969 -1.226562 C 7.59375 -0.28125 8.925781 0.28125 10.535156 0.28125 C 14.382812 0.28125 17.429688 -2.941406 17.429688 -7 C 17.429688 -11.058594 14.382812 -14.277344 10.535156 -14.277344 Z M 9.660156 -3.675781 C 7.804688 -3.675781 6.335938 -5.144531 6.335938 -7 C 6.335938 -8.855469 7.804688 -10.324219 9.660156 -10.324219 C 11.515625 -10.324219 12.984375 -8.855469 12.984375 -7 C 12.984375 -5.144531 11.515625 -3.675781 9.660156 -3.675781 Z M 9.660156 -3.675781 "/></g></g></g><g fill="#000000" fill-opacity="1"><g transform="translate(116.669922, 253.996287)"><g><path d="M 5.355469 0.121094 C 7.078125 0.121094 8.578125 -0.824219 9.375 -2.21875 L 8.550781 -2.683594 C 7.933594 -1.574219 6.734375 -0.839844 5.355469 -0.839844 C 3.328125 -0.839844 1.695312 -2.460938 1.695312 -4.5 C 1.695312 -6.539062 3.328125 -8.160156 5.355469 -8.160156 C 6.734375 -8.160156 7.933594 -7.425781 8.550781 -6.316406 L 9.375 -6.78125 C 8.578125 -8.175781 7.078125 -9.121094 5.355469 -9.121094 C 2.804688 -9.121094 0.734375 -7.050781 0.734375 -4.5 C 0.734375 -1.949219 2.804688 0.121094 5.355469 0.121094 Z M 5.355469 0.121094 "/></g></g></g><g fill="#000000" fill-opacity="1"><g transform="translate(130.559988, 253.996287)"><g><path d="M 5.355469 0.121094 C 7.921875 0.121094 9.976562 -1.949219 9.976562 -4.5 C 9.976562 -7.050781 7.921875 -9.121094 5.355469 -9.121094 C 2.804688 -9.121094 0.734375 -7.050781 0.734375 -4.5 C 0.734375 -1.949219 2.804688 0.121094 5.355469 0.121094 Z M 5.355469 -0.839844 C 3.328125 -0.839844 1.695312 -2.460938 1.695312 -4.5 C 1.695312 -6.539062 3.328125 -8.160156 5.355469 -8.160156 C 7.394531 -8.160156 9.015625 -6.539062 9.015625 -4.5 C 9.015625 -2.460938 7.394531 -0.839844 5.355469 -0.839844 Z M 5.355469 -0.839844 "/></g></g></g><g fill="#000000" fill-opacity="1"><g transform="translate(145.305053, 253.996287)"><g><path d="M 1.09375 0 L 3.554688 0 C 6.03125 0 8.054688 -2.011719 8.054688 -4.5 C 8.054688 -6.988281 6.03125 -9 3.554688 -9 L 1.09375 -9 Z M 2.039062 -0.960938 L 2.039062 -8.039062 L 3.539062 -8.039062 C 5.535156 -8.039062 7.09375 -6.523438 7.09375 -4.5 C 7.09375 -2.476562 5.535156 -0.960938 3.539062 -0.960938 Z M 2.039062 -0.960938 "/></g></g></g><g fill="#000000" fill-opacity="1"><g transform="translate(158.115116, 253.996287)"><g><path d="M 6.089844 -8.070312 L 6.089844 -9 L 1.171875 -9 L 1.171875 0 L 6.089844 0 L 6.089844 -0.929688 L 2.128906 -0.929688 L 2.128906 -4.035156 L 5.578125 -4.035156 L 5.578125 -4.964844 L 2.128906 -4.964844 L 2.128906 -8.070312 Z M 6.089844 -8.070312 "/></g></g></g><g fill="#000000" fill-opacity="1"><g transform="translate(169.125184, 253.996287)"><g/></g></g><g fill="#000000" fill-opacity="1"><g transform="translate(176.760253, 253.996287)"><g><path d="M 11.234375 -9 L 8.925781 -1.605469 L 6.734375 -9 L 5.386719 -9 L 3.226562 -1.621094 L 0.929688 -9 L -0.0898438 -9 L 2.730469 0 L 3.75 0 L 6.058594 -7.980469 L 8.414062 0 L 9.421875 0 L 12.226562 -9 Z M 11.234375 -9 "/></g></g></g><g fill="#000000" fill-opacity="1"><g transform="translate(192.91531, 253.996287)"><g><path d="M 1.171875 0 L 2.128906 0 L 2.128906 -9 L 1.171875 -9 Z M 1.171875 0 "/></g></g></g><g fill="#000000" fill-opacity="1"><g transform="translate(200.220376, 253.996287)"><g><path d="M 6.074219 -9 L 0.136719 -9 L 0.136719 -8.039062 L 2.625 -8.039062 L 2.625 0 L 3.585938 0 L 3.585938 -8.039062 L 6.074219 -8.039062 Z M 6.074219 -9 "/></g></g></g><g fill="#000000" fill-opacity="1"><g transform="translate(210.450449, 253.996287)"><g><path d="M 7.019531 -9 L 7.019531 -4.980469 L 2.054688 -4.980469 L 2.054688 -9 L 1.09375 -9 L 1.09375 0 L 2.054688 0 L 2.054688 -4.019531 L 7.019531 -4.019531 L 7.019531 0 L 7.980469 0 L 7.980469 -9 Z M 7.019531 -9 "/></g></g></g><g fill="#000000" fill-opacity="1"><g transform="translate(223.545511, 253.996287)"><g/></g></g><g fill="#000000" fill-opacity="1"><g transform="translate(231.180573, 253.996287)"><g><path d="M 4.425781 0.121094 C 6.390625 0.121094 7.816406 -1.183594 7.816406 -2.953125 L 7.816406 -9 L 6.855469 -9 L 6.855469 -3.105469 C 6.855469 -1.800781 5.820312 -0.839844 4.425781 -0.839844 C 3.03125 -0.839844 2.011719 -1.800781 2.011719 -3.105469 L 2.011719 -9 L 1.050781 -9 L 1.050781 -2.953125 C 1.050781 -1.183594 2.476562 0.121094 4.425781 0.121094 Z M 4.425781 0.121094 "/></g></g></g><g fill="#000000" fill-opacity="1"><g transform="translate(244.065636, 253.996287)"><g><path d="M 3.359375 0.121094 C 4.890625 0.121094 6.136719 -0.796875 6.136719 -2.371094 C 6.136719 -5.429688 1.753906 -4.679688 1.753906 -6.824219 C 1.753906 -7.726562 2.488281 -8.160156 3.328125 -8.160156 C 4.019531 -8.160156 4.589844 -7.875 4.949219 -7.363281 L 5.699219 -7.996094 C 5.203125 -8.625 4.335938 -9.121094 3.300781 -9.121094 C 1.921875 -9.121094 0.796875 -8.21875 0.796875 -6.75 C 0.796875 -3.855469 5.175781 -4.574219 5.175781 -2.339844 C 5.175781 -1.378906 4.378906 -0.839844 3.375 -0.839844 C 2.355469 -0.839844 1.621094 -1.394531 1.304688 -2.21875 L 0.433594 -1.710938 C 0.898438 -0.601562 2.023438 0.121094 3.359375 0.121094 Z M 3.359375 0.121094 "/></g></g></g><g fill="#000000" fill-opacity="1"><g transform="translate(254.6557, 253.996287)"><g><path d="M 1.453125 -2.566406 L 2.191406 -2.566406 L 2.296875 -10.078125 L 1.363281 -10.078125 Z M 1.828125 0.121094 C 2.175781 0.121094 2.476562 -0.179688 2.476562 -0.523438 C 2.476562 -0.886719 2.175781 -1.171875 1.828125 -1.171875 C 1.484375 -1.171875 1.183594 -0.886719 1.183594 -0.523438 C 1.183594 -0.179688 1.484375 0.121094 1.828125 0.121094 Z M 1.828125 0.121094 "/></g></g></g></svg>