<svg xmlns="http://www.w3.org/2000/svg" xmlns:xlink="http://www.w3.org/1999/xlink" width="500" zoomAndPan="magnify" viewBox="0 0 375 374.999991" height="500" preserveAspectRatio="xMidYMid meet" version="1.0"><defs><g/><clipPath id="036eab380b"><path d="M 26.71875 86 L 188 86 L 188 228.109375 L 26.71875 228.109375 Z M 26.71875 86 " clip-rule="nonzero"/></clipPath><clipPath id="6b33500315"><path d="M 187 12.109375 L 348.46875 12.109375 L 348.46875 154 L 187 154 Z M 187 12.109375 " clip-rule="nonzero"/></clipPath></defs><g clip-path="url(#036eab380b)"><path fill="#0652e9" d="M 134.996094 186.929688 L 134.996094 206.5 L 46.355469 165.320312 L 46.355469 149.4375 L 134.996094 108.257812 L 134.996094 127.835938 L 67.960938 157.195312 L 67.960938 157.5625 Z M 187.636719 86.507812 L 39.402344 86.507812 C 32.40625 86.507812 26.730469 92.179688 26.730469 99.183594 L 26.730469 215.578125 C 26.730469 222.578125 32.40625 228.25 39.402344 228.25 L 146.488281 228.25 L 187.636719 86.507812 " fill-opacity="1" fill-rule="nonzero"/></g><g clip-path="url(#6b33500315)"><path fill="#38b6ff" d="M 328.679688 91.542969 L 240.042969 132.167969 L 240.042969 112.59375 L 308.550781 83.234375 L 308.550781 82.863281 L 240.042969 53.5 L 240.042969 33.925781 L 328.679688 74.554688 Z M 228.789062 12.175781 L 187.636719 153.917969 L 335.632812 153.917969 C 342.628906 153.917969 348.300781 148.246094 348.300781 141.246094 L 348.300781 24.847656 C 348.300781 17.851562 342.628906 12.175781 335.632812 12.175781 L 228.789062 12.175781 " fill-opacity="1" fill-rule="nonzero"/></g><g fill="#000000" fill-opacity="1"><g transform="translate(43.570557, 307.070467)"><g><path d="M 28.46875 0.660156 C 38.289062 0.660156 46.785156 -4.867188 50.996094 -12.953125 L 41.589844 -17.824219 C 39.195312 -13.121094 34.328125 -9.984375 28.46875 -9.984375 C 20.132812 -9.984375 13.78125 -16.421875 13.78125 -24.753906 C 13.78125 -33.089844 20.132812 -39.523438 28.46875 -39.523438 C 34.328125 -39.523438 39.195312 -36.390625 41.589844 -31.6875 L 50.996094 -36.554688 C 46.785156 -44.640625 38.289062 -50.167969 28.46875 -50.167969 C 14.441406 -50.167969 3.054688 -38.78125 3.054688 -24.753906 C 3.054688 -10.726562 14.441406 0.660156 28.46875 0.660156 Z M 28.46875 0.660156 "/></g></g></g><g fill="#000000" fill-opacity="1"><g transform="translate(99.612903, 307.070467)"><g><path d="M 25.910156 -49.507812 L 4.867188 -49.507812 L 4.867188 0 L 15.761719 0 L 15.761719 -20.050781 L 25.910156 -20.050781 C 34.242188 -20.050781 40.679688 -26.238281 40.679688 -34.574219 C 40.679688 -42.824219 34.242188 -49.507812 25.910156 -49.507812 Z M 24.175781 -29.046875 L 15.761719 -29.046875 L 15.761719 -39.9375 L 24.175781 -39.9375 C 27.644531 -39.9375 30.285156 -37.710938 30.285156 -34.492188 C 30.285156 -31.191406 27.644531 -29.046875 24.175781 -29.046875 Z M 24.175781 -29.046875 "/></g></g></g><g fill="#000000" fill-opacity="1"><g transform="translate(143.526024, 307.070467)"><g/></g></g><g fill="#000000" fill-opacity="1"><g transform="translate(166.23365, 307.070467)"><g><path d="M 28.46875 0.660156 C 38.289062 0.660156 46.785156 -4.867188 50.996094 -12.953125 L 41.589844 -17.824219 C 39.195312 -13.121094 34.328125 -9.984375 28.46875 -9.984375 C 20.132812 -9.984375 13.78125 -16.421875 13.78125 -24.753906 C 13.78125 -33.089844 20.132812 -39.523438 28.46875 -39.523438 C 34.328125 -39.523438 39.195312 -36.390625 41.589844 -31.6875 L 50.996094 -36.554688 C 46.785156 -44.640625 38.289062 -50.167969 28.46875 -50.167969 C 14.441406 -50.167969 3.054688 -38.78125 3.054688 -24.753906 C 3.054688 -10.726562 14.441406 0.660156 28.46875 0.660156 Z M 28.46875 0.660156 "/></g></g></g><g fill="#000000" fill-opacity="1"><g transform="translate(222.275999, 307.070467)"><g><path d="M 4.867188 0 L 15.429688 0 L 15.429688 -56.523438 L 4.867188 -56.523438 Z M 4.867188 0 "/></g></g></g><g fill="#000000" fill-opacity="1"><g transform="translate(245.478714, 307.070467)"><g><path d="M 19.640625 0.660156 C 29.625 0.660156 35.152344 -4.539062 35.152344 -12.625 L 35.152344 -33.007812 L 24.671875 -33.007812 L 24.671875 -14.027344 C 24.671875 -10.890625 22.527344 -8.664062 19.640625 -8.664062 C 16.832031 -8.664062 14.6875 -10.890625 14.6875 -14.027344 L 14.6875 -33.007812 L 4.125 -33.007812 L 4.125 -12.625 C 4.125 -4.539062 9.65625 0.660156 19.640625 0.660156 Z M 19.640625 0.660156 "/></g></g></g><g fill="#000000" fill-opacity="1"><g transform="translate(287.741606, 307.070467)"><g><path d="M 24.835938 -33.667969 C 21.042969 -33.667969 17.90625 -32.347656 15.429688 -30.117188 L 15.429688 -56.523438 L 4.867188 -56.523438 L 4.867188 0 L 15.429688 0.0820312 L 15.429688 -2.886719 C 17.90625 -0.660156 21.042969 0.660156 24.835938 0.660156 C 33.914062 0.660156 41.09375 -6.929688 41.09375 -16.503906 C 41.09375 -26.074219 33.914062 -33.667969 24.835938 -33.667969 Z M 22.773438 -8.664062 C 18.402344 -8.664062 14.933594 -12.128906 14.933594 -16.503906 C 14.933594 -20.875 18.402344 -24.34375 22.773438 -24.34375 C 27.148438 -24.34375 30.613281 -20.875 30.613281 -16.503906 C 30.613281 -12.128906 27.148438 -8.664062 22.773438 -8.664062 Z M 22.773438 -8.664062 "/></g></g></g><g fill="#000000" fill-opacity="1"><g transform="translate(20.496641, 355.110565)"><g><path d="M 12.625 0.28125 C 16.691406 0.28125 20.230469 -1.945312 22.105469 -5.234375 L 20.160156 -6.332031 C 18.710938 -3.714844 15.878906 -1.980469 12.625 -1.980469 C 7.851562 -1.980469 3.996094 -5.800781 3.996094 -10.609375 C 3.996094 -15.421875 7.851562 -19.238281 12.625 -19.238281 C 15.878906 -19.238281 18.710938 -17.507812 20.160156 -14.890625 L 22.105469 -15.984375 C 20.230469 -19.273438 16.691406 -21.503906 12.625 -21.503906 C 6.613281 -21.503906 1.734375 -16.621094 1.734375 -10.609375 C 1.734375 -4.597656 6.613281 0.28125 12.625 0.28125 Z M 12.625 0.28125 "/></g></g></g><g fill="#000000" fill-opacity="1"><g transform="translate(53.246678, 355.110565)"><g><path d="M 12.625 0.28125 C 18.671875 0.28125 23.519531 -4.597656 23.519531 -10.609375 C 23.519531 -16.621094 18.671875 -21.503906 12.625 -21.503906 C 6.613281 -21.503906 1.734375 -16.621094 1.734375 -10.609375 C 1.734375 -4.597656 6.613281 0.28125 12.625 0.28125 Z M 12.625 -1.980469 C 7.851562 -1.980469 3.996094 -5.800781 3.996094 -10.609375 C 3.996094 -15.421875 7.851562 -19.238281 12.625 -19.238281 C 17.4375 -19.238281 21.253906 -15.421875 21.253906 -10.609375 C 21.253906 -5.800781 17.4375 -1.980469 12.625 -1.980469 Z M 12.625 -1.980469 "/></g></g></g><g fill="#000000" fill-opacity="1"><g transform="translate(88.012638, 355.110565)"><g><path d="M 2.582031 0 L 8.382812 0 C 14.21875 0 18.992188 -4.738281 18.992188 -10.609375 C 18.992188 -16.480469 14.21875 -21.21875 8.382812 -21.21875 L 2.582031 -21.21875 Z M 4.808594 -2.261719 L 4.808594 -18.957031 L 8.347656 -18.957031 C 13.050781 -18.957031 16.730469 -15.382812 16.730469 -10.609375 C 16.730469 -5.835938 13.050781 -2.261719 8.347656 -2.261719 Z M 4.808594 -2.261719 "/></g></g></g><g fill="#000000" fill-opacity="1"><g transform="translate(118.216245, 355.110565)"><g><path d="M 14.359375 -19.027344 L 14.359375 -21.21875 L 2.757812 -21.21875 L 2.757812 0 L 14.359375 0 L 14.359375 -2.191406 L 5.023438 -2.191406 L 5.023438 -9.515625 L 13.15625 -9.515625 L 13.15625 -11.707031 L 5.023438 -11.707031 L 5.023438 -19.027344 Z M 14.359375 -19.027344 "/></g></g></g><g fill="#000000" fill-opacity="1"><g transform="translate(144.175817, 355.110565)"><g/></g></g><g fill="#000000" fill-opacity="1"><g transform="translate(162.177804, 355.110565)"><g><path d="M 26.488281 -21.21875 L 21.042969 -3.785156 L 15.878906 -21.21875 L 12.695312 -21.21875 L 7.605469 -3.820312 L 2.191406 -21.21875 L -0.210938 -21.21875 L 6.4375 0 L 8.839844 0 L 14.289062 -18.816406 L 19.839844 0 L 22.210938 0 L 28.824219 -21.21875 Z M 26.488281 -21.21875 "/></g></g></g><g fill="#000000" fill-opacity="1"><g transform="translate(200.268246, 355.110565)"><g><path d="M 2.757812 0 L 5.023438 0 L 5.023438 -21.21875 L 2.757812 -21.21875 Z M 2.757812 0 "/></g></g></g><g fill="#000000" fill-opacity="1"><g transform="translate(217.492154, 355.110565)"><g><path d="M 14.324219 -21.21875 L 0.316406 -21.21875 L 0.316406 -18.957031 L 6.1875 -18.957031 L 6.1875 0 L 8.453125 0 L 8.453125 -18.957031 L 14.324219 -18.957031 Z M 14.324219 -21.21875 "/></g></g></g><g fill="#000000" fill-opacity="1"><g transform="translate(241.612652, 355.110565)"><g><path d="M 16.550781 -21.21875 L 16.550781 -11.742188 L 4.84375 -11.742188 L 4.84375 -21.21875 L 2.582031 -21.21875 L 2.582031 0 L 4.84375 0 L 4.84375 -9.476562 L 16.550781 -9.476562 L 16.550781 0 L 18.816406 0 L 18.816406 -21.21875 Z M 16.550781 -21.21875 "/></g></g></g><g fill="#000000" fill-opacity="1"><g transform="translate(272.488228, 355.110565)"><g/></g></g><g fill="#000000" fill-opacity="1"><g transform="translate(290.490202, 355.110565)"><g><path d="M 10.433594 0.28125 C 15.066406 0.28125 18.425781 -2.792969 18.425781 -6.96875 L 18.425781 -21.21875 L 16.164062 -21.21875 L 16.164062 -7.320312 C 16.164062 -4.242188 13.722656 -1.980469 10.433594 -1.980469 C 7.144531 -1.980469 4.738281 -4.242188 4.738281 -7.320312 L 4.738281 -21.21875 L 2.476562 -21.21875 L 2.476562 -6.96875 C 2.476562 -2.792969 5.835938 0.28125 10.433594 0.28125 Z M 10.433594 0.28125 "/></g></g></g><g fill="#000000" fill-opacity="1"><g transform="translate(320.87064, 355.110565)"><g><path d="M 7.921875 0.28125 C 11.53125 0.28125 14.464844 -1.875 14.464844 -5.589844 C 14.464844 -12.804688 4.136719 -11.035156 4.136719 -16.09375 C 4.136719 -18.214844 5.871094 -19.238281 7.851562 -19.238281 C 9.476562 -19.238281 10.824219 -18.566406 11.671875 -17.363281 L 13.441406 -18.851562 C 12.273438 -20.335938 10.222656 -21.503906 7.78125 -21.503906 C 4.527344 -21.503906 1.875 -19.382812 1.875 -15.914062 C 1.875 -9.089844 12.203125 -10.785156 12.203125 -5.515625 C 12.203125 -3.253906 10.328125 -1.980469 7.957031 -1.980469 C 5.550781 -1.980469 3.820312 -3.289062 3.078125 -5.234375 L 1.027344 -4.03125 C 2.121094 -1.414062 4.773438 0.28125 7.921875 0.28125 Z M 7.921875 0.28125 "/></g></g></g><g fill="#000000" fill-opacity="1"><g transform="translate(345.839926, 355.110565)"><g><path d="M 3.429688 -6.046875 L 5.164062 -6.046875 L 5.410156 -23.765625 L 3.21875 -23.765625 Z M 4.316406 0.28125 C 5.128906 0.28125 5.835938 -0.425781 5.835938 -1.238281 C 5.835938 -2.085938 5.128906 -2.757812 4.316406 -2.757812 C 3.5 -2.757812 2.792969 -2.085938 2.792969 -1.238281 C 2.792969 -0.425781 3.5 0.28125 4.316406 0.28125 Z M 4.316406 0.28125 "/></g></g></g><g fill="#000000" fill-opacity="1"><g transform="translate(43.731254, 43.704817)"><g><path d="M 8.699219 0 L 8.699219 -2.507812 L 3.1875 -2.507812 L 3.1875 -8.484375 L 8.699219 -8.484375 L 8.699219 -11.007812 L 0.429688 -11.007812 L 0.429688 0 Z M 8.699219 0 "/></g></g></g><g fill="#000000" fill-opacity="1"><g transform="translate(58.289117, 43.704817)"><g><path d="M 8.699219 0 L 8.699219 -11.007812 L 0.429688 -11.007812 L 0.429688 0 Z M 5.941406 -2.507812 L 3.1875 -2.507812 L 3.1875 -8.484375 L 5.941406 -8.484375 Z M 5.941406 -2.507812 "/></g></g></g><g fill="#000000" fill-opacity="1"><g transform="translate(72.946022, 43.704817)"><g><path d="M 11.257812 0 L 11.257812 -11.007812 L 0.246094 -11.007812 L 0.246094 -8.484375 L 0.792969 -8.484375 L 0.792969 0 L 3.003906 0 L 3.003906 -8.484375 L 4.375 -8.484375 L 4.375 0 L 7.128906 0 L 7.128906 -8.484375 L 8.5 -8.484375 L 8.5 0 Z M 11.257812 0 "/></g></g></g><g fill="#000000" fill-opacity="1"><g transform="translate(90.161293, 43.704817)"><g><path d="M 8.699219 -3.070312 L 8.699219 -11.007812 L 0.429688 -11.007812 L 0.429688 0 L 3.1875 0 L 3.1875 -3.070312 Z M 5.941406 -5.578125 L 3.1875 -5.578125 L 3.1875 -8.484375 L 5.941406 -8.484375 Z M 5.941406 -5.578125 "/></g></g></g><g fill="#000000" fill-opacity="1"><g transform="translate(104.768687, 43.704817)"><g><path d="M 8.664062 0 L 8.664062 -2.507812 L 3.1875 -2.507812 L 3.1875 -4.324219 L 8.664062 -4.324219 L 8.664062 -6.75 L 3.1875 -6.75 L 3.1875 -8.484375 L 8.664062 -8.484375 L 8.664062 -11.007812 L 0.429688 -11.007812 L 0.429688 0 Z M 8.664062 0 "/></g></g></g><g fill="#000000" fill-opacity="1"><g transform="translate(119.392578, 43.704817)"><g><path d="M 8.515625 -8.484375 L 8.515625 -11.007812 L 0.246094 -11.007812 L 0.246094 -8.484375 L 3.019531 -8.484375 L 3.019531 0 L 5.777344 0 L 5.777344 -8.484375 Z M 8.515625 -8.484375 "/></g></g></g><g fill="#000000" fill-opacity="1"><g transform="translate(133.686352, 43.704817)"><g><path d="M 3.1875 0 L 3.1875 -11.007812 L 0.429688 -11.007812 L 0.429688 0 Z M 3.1875 0 "/></g></g></g><g fill="#000000" fill-opacity="1"><g transform="translate(142.830396, 43.704817)"><g><path d="M 8.515625 -8.484375 L 8.515625 -11.007812 L 0.246094 -11.007812 L 0.246094 -8.484375 L 3.019531 -8.484375 L 3.019531 0 L 5.777344 0 L 5.777344 -8.484375 Z M 8.515625 -8.484375 "/></g></g></g><g fill="#000000" fill-opacity="1"><g transform="translate(157.124176, 43.704817)"><g><path d="M 3.1875 0 L 3.1875 -11.007812 L 0.429688 -11.007812 L 0.429688 0 Z M 3.1875 0 "/></g></g></g><g fill="#000000" fill-opacity="1"><g transform="translate(166.268219, 43.704817)"><g><path d="M 9.0625 -8.484375 L 9.0625 -11.007812 L 5.761719 -11.007812 L 5.761719 -2.507812 L 3.546875 -2.507812 L 3.546875 -11.007812 L 0.246094 -11.007812 L 0.246094 -8.484375 L 0.792969 -8.484375 L 0.792969 0 L 8.515625 0 L 8.515625 -8.484375 Z M 9.0625 -8.484375 "/></g></g></g><g fill="#000000" fill-opacity="1"><g transform="translate(181.106683, 43.704817)"><g><path d="M 8.664062 0 L 8.664062 -2.507812 L 3.1875 -2.507812 L 3.1875 -4.324219 L 8.664062 -4.324219 L 8.664062 -6.75 L 3.1875 -6.75 L 3.1875 -8.484375 L 8.664062 -8.484375 L 8.664062 -11.007812 L 0.429688 -11.007812 L 0.429688 0 Z M 8.664062 0 "/></g></g></g><g fill="#000000" fill-opacity="1"><g transform="translate(180.45065, 204.240783)"><g><path d="M 8.699219 -3.070312 L 8.699219 -11.007812 L 0.429688 -11.007812 L 0.429688 0 L 3.1875 0 L 3.1875 -3.070312 Z M 5.941406 -5.578125 L 3.1875 -5.578125 L 3.1875 -8.484375 L 5.941406 -8.484375 Z M 5.941406 -5.578125 "/></g></g></g><g fill="#000000" fill-opacity="1"><g transform="translate(195.058045, 204.240783)"><g><path d="M 8.699219 0 L 7.082031 -3.070312 L 8.699219 -3.070312 L 8.699219 -11.007812 L 0.429688 -11.007812 L 0.429688 0 L 3.1875 0 L 3.1875 -3.070312 L 4.375 -3.070312 L 5.941406 0 Z M 5.941406 -5.578125 L 3.1875 -5.578125 L 3.1875 -8.484375 L 5.941406 -8.484375 Z M 5.941406 -5.578125 "/></g></g></g><g fill="#000000" fill-opacity="1"><g transform="translate(209.714949, 204.240783)"><g><path d="M 8.699219 0 L 8.699219 -11.007812 L 0.429688 -11.007812 L 0.429688 0 Z M 5.941406 -2.507812 L 3.1875 -2.507812 L 3.1875 -8.484375 L 5.941406 -8.484375 Z M 5.941406 -2.507812 "/></g></g></g><g fill="#000000" fill-opacity="1"><g transform="translate(224.371854, 204.240783)"><g><path d="M 8.699219 0 L 8.699219 -4.324219 L 5.941406 -4.324219 L 5.941406 -2.507812 L 3.1875 -2.507812 L 3.1875 -8.484375 L 8.699219 -8.484375 L 8.699219 -11.007812 L 0.429688 -11.007812 L 0.429688 0 Z M 8.699219 0 "/></g></g></g><g fill="#000000" fill-opacity="1"><g transform="translate(239.028759, 204.240783)"><g><path d="M 8.699219 0 L 7.082031 -3.070312 L 8.699219 -3.070312 L 8.699219 -11.007812 L 0.429688 -11.007812 L 0.429688 0 L 3.1875 0 L 3.1875 -3.070312 L 4.375 -3.070312 L 5.941406 0 Z M 5.941406 -5.578125 L 3.1875 -5.578125 L 3.1875 -8.484375 L 5.941406 -8.484375 Z M 5.941406 -5.578125 "/></g></g></g><g fill="#000000" fill-opacity="1"><g transform="translate(253.685663, 204.240783)"><g><path d="M 8.699219 0 L 8.699219 -11.007812 L 0.429688 -11.007812 L 0.429688 0 L 3.1875 0 L 3.1875 -3.070312 L 5.941406 -3.070312 L 5.941406 0 Z M 5.941406 -5.578125 L 3.1875 -5.578125 L 3.1875 -8.484375 L 5.941406 -8.484375 Z M 5.941406 -5.578125 "/></g></g></g><g fill="#000000" fill-opacity="1"><g transform="translate(268.342568, 204.240783)"><g><path d="M 11.257812 0 L 11.257812 -11.007812 L 0.246094 -11.007812 L 0.246094 -8.484375 L 0.792969 -8.484375 L 0.792969 0 L 3.003906 0 L 3.003906 -8.484375 L 4.375 -8.484375 L 4.375 0 L 7.128906 0 L 7.128906 -8.484375 L 8.5 -8.484375 L 8.5 0 Z M 11.257812 0 "/></g></g></g><g fill="#000000" fill-opacity="1"><g transform="translate(285.557833, 204.240783)"><g><path d="M 11.257812 0 L 11.257812 -11.007812 L 0.246094 -11.007812 L 0.246094 -8.484375 L 0.792969 -8.484375 L 0.792969 0 L 3.003906 0 L 3.003906 -8.484375 L 4.375 -8.484375 L 4.375 0 L 7.128906 0 L 7.128906 -8.484375 L 8.5 -8.484375 L 8.5 0 Z M 11.257812 0 "/></g></g></g><g fill="#000000" fill-opacity="1"><g transform="translate(302.77311, 204.240783)"><g><path d="M 3.1875 0 L 3.1875 -11.007812 L 0.429688 -11.007812 L 0.429688 0 Z M 3.1875 0 "/></g></g></g><g fill="#000000" fill-opacity="1"><g transform="translate(311.917153, 204.240783)"><g><path d="M 8.515625 0 L 8.515625 -11.007812 L 0.246094 -11.007812 L 0.246094 -8.484375 L 0.792969 -8.484375 L 0.792969 0 L 3.003906 0 L 3.003906 -8.484375 L 5.761719 -8.484375 L 5.761719 0 Z M 8.515625 0 "/></g></g></g><g fill="#000000" fill-opacity="1"><g transform="translate(326.392487, 204.240783)"><g><path d="M 8.699219 0 L 8.699219 -4.324219 L 5.941406 -4.324219 L 5.941406 -2.507812 L 3.1875 -2.507812 L 3.1875 -8.484375 L 8.699219 -8.484375 L 8.699219 -11.007812 L 0.429688 -11.007812 L 0.429688 0 Z M 8.699219 0 "/></g></g></g></svg>