<svg xmlns="http://www.w3.org/2000/svg" xmlns:xlink="http://www.w3.org/1999/xlink" width="500" zoomAndPan="magnify" viewBox="0 0 375 374.999991" height="500" preserveAspectRatio="xMidYMid meet" version="1.0"><defs><g/><clipPath id="91979a8d42"><path d="M 27.601562 104 L 188 104 L 188 245.507812 L 27.601562 245.507812 Z M 27.601562 104 " clip-rule="nonzero"/></clipPath><clipPath id="8c2102fe88"><path d="M 187 30.257812 L 347.101562 30.257812 L 347.101562 172 L 187 172 Z M 187 30.257812 " clip-rule="nonzero"/></clipPath></defs><g clip-path="url(#91979a8d42)"><path fill="#0652e9" d="M 135.28125 204.121094 L 135.28125 223.585938 L 47.128906 182.628906 L 47.128906 166.835938 L 135.28125 125.882812 L 135.28125 145.351562 L 68.617188 174.550781 L 68.617188 174.917969 Z M 187.632812 104.253906 L 40.214844 104.253906 C 33.257812 104.253906 27.613281 109.894531 27.613281 116.855469 L 27.613281 232.613281 C 27.613281 239.570312 33.257812 245.214844 40.214844 245.214844 L 146.710938 245.214844 L 187.632812 104.253906 " fill-opacity="1" fill-rule="nonzero"/></g><g clip-path="url(#8c2102fe88)"><path fill="#62e1e9" d="M 327.898438 109.261719 L 239.75 149.664062 L 239.75 130.191406 L 307.882812 100.996094 L 307.882812 100.628906 L 239.75 71.425781 L 239.75 51.960938 L 327.898438 92.363281 Z M 228.558594 30.332031 L 187.632812 171.292969 L 334.8125 171.292969 C 341.773438 171.292969 347.414062 165.652344 347.414062 158.6875 L 347.414062 42.929688 C 347.414062 35.972656 341.773438 30.332031 334.8125 30.332031 L 228.558594 30.332031 " fill-opacity="1" fill-rule="nonzero"/></g><g fill="#ffffff" fill-opacity="1"><g transform="translate(44.369429, 322.288725)"><g><path d="M 28.3125 0.65625 C 38.078125 0.65625 46.53125 -4.839844 50.714844 -12.882812 L 41.359375 -17.726562 C 38.980469 -13.046875 34.136719 -9.929688 28.3125 -9.929688 C 20.023438 -9.929688 13.703125 -16.332031 13.703125 -24.617188 C 13.703125 -32.90625 20.023438 -39.308594 28.3125 -39.308594 C 34.136719 -39.308594 38.980469 -36.191406 41.359375 -31.511719 L 50.714844 -36.355469 C 46.53125 -44.394531 38.078125 -49.894531 28.3125 -49.894531 C 14.359375 -49.894531 3.035156 -38.570312 3.035156 -24.617188 C 3.035156 -10.667969 14.359375 0.65625 28.3125 0.65625 Z M 28.3125 0.65625 "/></g></g></g><g fill="#ffffff" fill-opacity="1"><g transform="translate(100.104087, 322.288725)"><g><path d="M 25.769531 -49.238281 L 4.839844 -49.238281 L 4.839844 0 L 15.675781 0 L 15.675781 -19.941406 L 25.769531 -19.941406 C 34.054688 -19.941406 40.457031 -26.097656 40.457031 -34.382812 C 40.457031 -42.589844 34.054688 -49.238281 25.769531 -49.238281 Z M 24.042969 -28.886719 L 15.675781 -28.886719 L 15.675781 -39.71875 L 24.042969 -39.71875 C 27.492188 -39.71875 30.117188 -37.503906 30.117188 -34.300781 C 30.117188 -31.019531 27.492188 -28.886719 24.042969 -28.886719 Z M 24.042969 -28.886719 "/></g></g></g><g fill="#ffffff" fill-opacity="1"><g transform="translate(143.776114, 322.288725)"><g/></g></g><g fill="#ffffff" fill-opacity="1"><g transform="translate(166.359069, 322.288725)"><g><path d="M 28.3125 0.65625 C 38.078125 0.65625 46.53125 -4.839844 50.714844 -12.882812 L 41.359375 -17.726562 C 38.980469 -13.046875 34.136719 -9.929688 28.3125 -9.929688 C 20.023438 -9.929688 13.703125 -16.332031 13.703125 -24.617188 C 13.703125 -32.90625 20.023438 -39.308594 28.3125 -39.308594 C 34.136719 -39.308594 38.980469 -36.191406 41.359375 -31.511719 L 50.714844 -36.355469 C 46.53125 -44.394531 38.078125 -49.894531 28.3125 -49.894531 C 14.359375 -49.894531 3.035156 -38.570312 3.035156 -24.617188 C 3.035156 -10.667969 14.359375 0.65625 28.3125 0.65625 Z M 28.3125 0.65625 "/></g></g></g><g fill="#ffffff" fill-opacity="1"><g transform="translate(222.093731, 322.288725)"><g><path d="M 4.839844 0 L 15.347656 0 L 15.347656 -56.214844 L 4.839844 -56.214844 Z M 4.839844 0 "/></g></g></g><g fill="#ffffff" fill-opacity="1"><g transform="translate(245.169057, 322.288725)"><g><path d="M 19.53125 0.65625 C 29.460938 0.65625 34.957031 -4.511719 34.957031 -12.554688 L 34.957031 -32.824219 L 24.535156 -32.824219 L 24.535156 -13.949219 C 24.535156 -10.832031 22.402344 -8.617188 19.53125 -8.617188 C 16.742188 -8.617188 14.605469 -10.832031 14.605469 -13.949219 L 14.605469 -32.824219 L 4.101562 -32.824219 L 4.101562 -12.554688 C 4.101562 -4.511719 9.601562 0.65625 19.53125 0.65625 Z M 19.53125 0.65625 "/></g></g></g><g fill="#ffffff" fill-opacity="1"><g transform="translate(287.199914, 322.288725)"><g><path d="M 24.699219 -33.480469 C 20.925781 -33.480469 17.808594 -32.167969 15.347656 -29.953125 L 15.347656 -56.214844 L 4.839844 -56.214844 L 4.839844 0 L 15.347656 0.0820312 L 15.347656 -2.871094 C 17.808594 -0.65625 20.925781 0.65625 24.699219 0.65625 C 33.726562 0.65625 40.867188 -6.894531 40.867188 -16.414062 C 40.867188 -25.933594 33.726562 -33.480469 24.699219 -33.480469 Z M 22.648438 -8.617188 C 18.300781 -8.617188 14.851562 -12.0625 14.851562 -16.414062 C 14.851562 -20.761719 18.300781 -24.207031 22.648438 -24.207031 C 27 -24.207031 30.445312 -20.761719 30.445312 -16.414062 C 30.445312 -12.0625 27 -8.617188 22.648438 -8.617188 Z M 22.648438 -8.617188 "/></g></g></g><g fill="#ffffff" fill-opacity="1"><g transform="translate(44.520581, 61.681807)"><g><path d="M 8.652344 0 L 8.652344 -2.496094 L 3.167969 -2.496094 L 3.167969 -8.4375 L 8.652344 -8.4375 L 8.652344 -10.949219 L 0.425781 -10.949219 L 0.425781 0 Z M 8.652344 0 "/></g></g></g><g fill="#ffffff" fill-opacity="1"><g transform="translate(58.998518, 61.681807)"><g><path d="M 8.652344 0 L 8.652344 -10.949219 L 0.425781 -10.949219 L 0.425781 0 Z M 5.910156 -2.496094 L 3.167969 -2.496094 L 3.167969 -8.4375 L 5.910156 -8.4375 Z M 5.910156 -2.496094 "/></g></g></g><g fill="#ffffff" fill-opacity="1"><g transform="translate(73.574952, 61.681807)"><g><path d="M 11.195312 0 L 11.195312 -10.949219 L 0.246094 -10.949219 L 0.246094 -8.4375 L 0.789062 -8.4375 L 0.789062 0 L 2.988281 0 L 2.988281 -8.4375 L 4.351562 -8.4375 L 4.351562 0 L 7.089844 0 L 7.089844 -8.4375 L 8.453125 -8.4375 L 8.453125 0 Z M 11.195312 0 "/></g></g></g><g fill="#ffffff" fill-opacity="1"><g transform="translate(90.695706, 61.681807)"><g><path d="M 8.652344 -3.054688 L 8.652344 -10.949219 L 0.425781 -10.949219 L 0.425781 0 L 3.167969 0 L 3.167969 -3.054688 Z M 5.910156 -5.546875 L 3.167969 -5.546875 L 3.167969 -8.4375 L 5.910156 -8.4375 Z M 5.910156 -5.546875 "/></g></g></g><g fill="#ffffff" fill-opacity="1"><g transform="translate(105.222902, 61.681807)"><g><path d="M 8.617188 0 L 8.617188 -2.496094 L 3.167969 -2.496094 L 3.167969 -4.300781 L 8.617188 -4.300781 L 8.617188 -6.714844 L 3.167969 -6.714844 L 3.167969 -8.4375 L 8.617188 -8.4375 L 8.617188 -10.949219 L 0.425781 -10.949219 L 0.425781 0 Z M 8.617188 0 "/></g></g></g><g fill="#ffffff" fill-opacity="1"><g transform="translate(119.766504, 61.681807)"><g><path d="M 8.46875 -8.4375 L 8.46875 -10.949219 L 0.246094 -10.949219 L 0.246094 -8.4375 L 3.003906 -8.4375 L 3.003906 0 L 5.746094 0 L 5.746094 -8.4375 Z M 8.46875 -8.4375 "/></g></g></g><g fill="#ffffff" fill-opacity="1"><g transform="translate(133.981801, 61.681807)"><g><path d="M 3.167969 0 L 3.167969 -10.949219 L 0.425781 -10.949219 L 0.425781 0 Z M 3.167969 0 "/></g></g></g><g fill="#ffffff" fill-opacity="1"><g transform="translate(143.075641, 61.681807)"><g><path d="M 8.46875 -8.4375 L 8.46875 -10.949219 L 0.246094 -10.949219 L 0.246094 -8.4375 L 3.003906 -8.4375 L 3.003906 0 L 5.746094 0 L 5.746094 -8.4375 Z M 8.46875 -8.4375 "/></g></g></g><g fill="#ffffff" fill-opacity="1"><g transform="translate(157.290944, 61.681807)"><g><path d="M 3.167969 0 L 3.167969 -10.949219 L 0.425781 -10.949219 L 0.425781 0 Z M 3.167969 0 "/></g></g></g><g fill="#ffffff" fill-opacity="1"><g transform="translate(166.384784, 61.681807)"><g><path d="M 9.011719 -8.4375 L 9.011719 -10.949219 L 5.730469 -10.949219 L 5.730469 -2.496094 L 3.527344 -2.496094 L 3.527344 -10.949219 L 0.246094 -10.949219 L 0.246094 -8.4375 L 0.789062 -8.4375 L 0.789062 0 L 8.46875 0 L 8.46875 -8.4375 Z M 9.011719 -8.4375 "/></g></g></g><g fill="#ffffff" fill-opacity="1"><g transform="translate(181.141781, 61.681807)"><g><path d="M 8.617188 0 L 8.617188 -2.496094 L 3.167969 -2.496094 L 3.167969 -4.300781 L 8.617188 -4.300781 L 8.617188 -6.714844 L 3.167969 -6.714844 L 3.167969 -8.4375 L 8.617188 -8.4375 L 8.617188 -10.949219 L 0.425781 -10.949219 L 0.425781 0 Z M 8.617188 0 "/></g></g></g><g fill="#ffffff" fill-opacity="1"><g transform="translate(180.489374, 221.336288)"><g><path d="M 8.652344 -3.054688 L 8.652344 -10.949219 L 0.425781 -10.949219 L 0.425781 0 L 3.167969 0 L 3.167969 -3.054688 Z M 5.910156 -5.546875 L 3.167969 -5.546875 L 3.167969 -8.4375 L 5.910156 -8.4375 Z M 5.910156 -5.546875 "/></g></g></g><g fill="#ffffff" fill-opacity="1"><g transform="translate(195.01657, 221.336288)"><g><path d="M 8.652344 0 L 7.042969 -3.054688 L 8.652344 -3.054688 L 8.652344 -10.949219 L 0.425781 -10.949219 L 0.425781 0 L 3.167969 0 L 3.167969 -3.054688 L 4.351562 -3.054688 L 5.910156 0 Z M 5.910156 -5.546875 L 3.167969 -5.546875 L 3.167969 -8.4375 L 5.910156 -8.4375 Z M 5.910156 -5.546875 "/></g></g></g><g fill="#ffffff" fill-opacity="1"><g transform="translate(209.593004, 221.336288)"><g><path d="M 8.652344 0 L 8.652344 -10.949219 L 0.425781 -10.949219 L 0.425781 0 Z M 5.910156 -2.496094 L 3.167969 -2.496094 L 3.167969 -8.4375 L 5.910156 -8.4375 Z M 5.910156 -2.496094 "/></g></g></g><g fill="#ffffff" fill-opacity="1"><g transform="translate(224.169438, 221.336288)"><g><path d="M 8.652344 0 L 8.652344 -4.300781 L 5.910156 -4.300781 L 5.910156 -2.496094 L 3.167969 -2.496094 L 3.167969 -8.4375 L 8.652344 -8.4375 L 8.652344 -10.949219 L 0.425781 -10.949219 L 0.425781 0 Z M 8.652344 0 "/></g></g></g><g fill="#ffffff" fill-opacity="1"><g transform="translate(238.745872, 221.336288)"><g><path d="M 8.652344 0 L 7.042969 -3.054688 L 8.652344 -3.054688 L 8.652344 -10.949219 L 0.425781 -10.949219 L 0.425781 0 L 3.167969 0 L 3.167969 -3.054688 L 4.351562 -3.054688 L 5.910156 0 Z M 5.910156 -5.546875 L 3.167969 -5.546875 L 3.167969 -8.4375 L 5.910156 -8.4375 Z M 5.910156 -5.546875 "/></g></g></g><g fill="#ffffff" fill-opacity="1"><g transform="translate(253.322307, 221.336288)"><g><path d="M 8.652344 0 L 8.652344 -10.949219 L 0.425781 -10.949219 L 0.425781 0 L 3.167969 0 L 3.167969 -3.054688 L 5.910156 -3.054688 L 5.910156 0 Z M 5.910156 -5.546875 L 3.167969 -5.546875 L 3.167969 -8.4375 L 5.910156 -8.4375 Z M 5.910156 -5.546875 "/></g></g></g><g fill="#ffffff" fill-opacity="1"><g transform="translate(267.898741, 221.336288)"><g><path d="M 11.195312 0 L 11.195312 -10.949219 L 0.246094 -10.949219 L 0.246094 -8.4375 L 0.789062 -8.4375 L 0.789062 0 L 2.988281 0 L 2.988281 -8.4375 L 4.351562 -8.4375 L 4.351562 0 L 7.089844 0 L 7.089844 -8.4375 L 8.453125 -8.4375 L 8.453125 0 Z M 11.195312 0 "/></g></g></g><g fill="#ffffff" fill-opacity="1"><g transform="translate(285.01949, 221.336288)"><g><path d="M 11.195312 0 L 11.195312 -10.949219 L 0.246094 -10.949219 L 0.246094 -8.4375 L 0.789062 -8.4375 L 0.789062 0 L 2.988281 0 L 2.988281 -8.4375 L 4.351562 -8.4375 L 4.351562 0 L 7.089844 0 L 7.089844 -8.4375 L 8.453125 -8.4375 L 8.453125 0 Z M 11.195312 0 "/></g></g></g><g fill="#ffffff" fill-opacity="1"><g transform="translate(302.14025, 221.336288)"><g><path d="M 3.167969 0 L 3.167969 -10.949219 L 0.425781 -10.949219 L 0.425781 0 Z M 3.167969 0 "/></g></g></g><g fill="#ffffff" fill-opacity="1"><g transform="translate(311.23409, 221.336288)"><g><path d="M 8.46875 0 L 8.46875 -10.949219 L 0.246094 -10.949219 L 0.246094 -8.4375 L 0.789062 -8.4375 L 0.789062 0 L 2.988281 0 L 2.988281 -8.4375 L 5.730469 -8.4375 L 5.730469 0 Z M 8.46875 0 "/></g></g></g><g fill="#ffffff" fill-opacity="1"><g transform="translate(325.62995, 221.336288)"><g><path d="M 8.652344 0 L 8.652344 -4.300781 L 5.910156 -4.300781 L 5.910156 -2.496094 L 3.167969 -2.496094 L 3.167969 -8.4375 L 8.652344 -8.4375 L 8.652344 -10.949219 L 0.425781 -10.949219 L 0.425781 0 Z M 8.652344 0 "/></g></g></g></svg>