<svg xmlns="http://www.w3.org/2000/svg" xmlns:xlink="http://www.w3.org/1999/xlink" width="500" zoomAndPan="magnify" viewBox="0 0 375 374.999991" height="500" preserveAspectRatio="xMidYMid meet" version="1.0"><defs><g/><clipPath id="96fdc8e35c"><path d="M 13.121094 101 L 188 101 L 188 255.664062 L 13.121094 255.664062 Z M 13.121094 101 " clip-rule="nonzero"/></clipPath><clipPath id="79580d4cc5"><path d="M 187 20.914062 L 361.871094 20.914062 L 361.871094 175 L 187 175 Z M 187 20.914062 " clip-rule="nonzero"/></clipPath></defs><rect x="-37.5" width="450" fill="#ffffff" y="-37.499999" height="449.999989" fill-opacity="1"/><rect x="-37.5" width="450" fill="#f3f5f9" y="-37.499999" height="449.999989" fill-opacity="1"/><g clip-path="url(#96fdc8e35c)"><path fill="#0652e9" d="M 130.550781 210.519531 L 130.550781 231.746094 L 34.417969 187.085938 L 34.417969 169.859375 L 130.550781 125.199219 L 130.550781 146.429688 L 57.847656 178.269531 L 57.847656 178.671875 Z M 187.644531 101.609375 L 26.878906 101.609375 C 19.289062 101.609375 13.132812 107.761719 13.132812 115.355469 L 13.132812 241.59375 C 13.132812 249.183594 19.289062 255.335938 26.878906 255.335938 L 143.015625 255.335938 L 187.644531 101.609375 " fill-opacity="1" fill-rule="nonzero"/></g><g clip-path="url(#79580d4cc5)"><path fill="#38b6ff" d="M 340.609375 107.070312 L 244.480469 151.132812 L 244.480469 129.898438 L 318.78125 98.058594 L 318.78125 97.65625 L 244.480469 65.808594 L 244.480469 44.582031 L 340.609375 88.644531 Z M 232.277344 20.992188 L 187.644531 174.71875 L 348.152344 174.71875 C 355.742188 174.71875 361.894531 168.566406 361.894531 160.972656 L 361.894531 34.734375 C 361.894531 27.148438 355.742188 20.992188 348.152344 20.992188 L 232.277344 20.992188 " fill-opacity="1" fill-rule="nonzero"/></g><g fill="#000000" fill-opacity="1"><g transform="translate(31.407819, 329.599876)"><g><path d="M 30.875 0.714844 C 41.527344 0.714844 50.742188 -5.28125 55.308594 -14.050781 L 45.105469 -19.332031 C 42.511719 -14.230469 37.230469 -10.828125 30.875 -10.828125 C 21.835938 -10.828125 14.945312 -17.808594 14.945312 -26.847656 C 14.945312 -35.886719 21.835938 -42.867188 30.875 -42.867188 C 37.230469 -42.867188 42.511719 -39.46875 45.105469 -34.367188 L 55.308594 -39.644531 C 50.742188 -48.417969 41.527344 -54.414062 30.875 -54.414062 C 15.660156 -54.414062 3.3125 -42.0625 3.3125 -26.847656 C 3.3125 -11.632812 15.660156 0.714844 30.875 0.714844 Z M 30.875 0.714844 "/></g></g></g><g fill="#000000" fill-opacity="1"><g transform="translate(92.190011, 329.599876)"><g><path d="M 28.101562 -53.695312 L 5.28125 -53.695312 L 5.28125 0 L 17.09375 0 L 17.09375 -21.746094 L 28.101562 -21.746094 C 37.140625 -21.746094 44.121094 -28.460938 44.121094 -37.5 C 44.121094 -46.449219 37.140625 -53.695312 28.101562 -53.695312 Z M 26.222656 -31.503906 L 17.09375 -31.503906 L 17.09375 -43.316406 L 26.222656 -43.316406 C 29.980469 -43.316406 32.84375 -40.898438 32.84375 -37.410156 C 32.84375 -33.828125 29.980469 -31.503906 26.222656 -31.503906 Z M 26.222656 -31.503906 "/></g></g></g><g fill="#000000" fill-opacity="1"><g transform="translate(139.817136, 329.599876)"><g/></g></g><g fill="#000000" fill-opacity="1"><g transform="translate(164.445285, 329.599876)"><g><path d="M 30.875 0.714844 C 41.527344 0.714844 50.742188 -5.28125 55.308594 -14.050781 L 45.105469 -19.332031 C 42.511719 -14.230469 37.230469 -10.828125 30.875 -10.828125 C 21.835938 -10.828125 14.945312 -17.808594 14.945312 -26.847656 C 14.945312 -35.886719 21.835938 -42.867188 30.875 -42.867188 C 37.230469 -42.867188 42.511719 -39.46875 45.105469 -34.367188 L 55.308594 -39.644531 C 50.742188 -48.417969 41.527344 -54.414062 30.875 -54.414062 C 15.660156 -54.414062 3.3125 -42.0625 3.3125 -26.847656 C 3.3125 -11.632812 15.660156 0.714844 30.875 0.714844 Z M 30.875 0.714844 "/></g></g></g><g fill="#000000" fill-opacity="1"><g transform="translate(225.227481, 329.599876)"><g><path d="M 5.28125 0 L 16.734375 0 L 16.734375 -61.304688 L 5.28125 -61.304688 Z M 5.28125 0 "/></g></g></g><g fill="#000000" fill-opacity="1"><g transform="translate(250.392592, 329.599876)"><g><path d="M 21.300781 0.714844 C 32.128906 0.714844 38.125 -4.921875 38.125 -13.691406 L 38.125 -35.796875 L 26.757812 -35.796875 L 26.757812 -15.214844 C 26.757812 -11.8125 24.433594 -9.398438 21.300781 -9.398438 C 18.257812 -9.398438 15.929688 -11.8125 15.929688 -15.214844 L 15.929688 -35.796875 L 4.476562 -35.796875 L 4.476562 -13.691406 C 4.476562 -4.921875 10.472656 0.714844 21.300781 0.714844 Z M 21.300781 0.714844 "/></g></g></g><g fill="#000000" fill-opacity="1"><g transform="translate(296.229917, 329.599876)"><g><path d="M 26.9375 -36.515625 C 22.820312 -36.515625 19.421875 -35.082031 16.734375 -32.664062 L 16.734375 -61.304688 L 5.28125 -61.304688 L 5.28125 0 L 16.734375 0.0898438 L 16.734375 -3.132812 C 19.421875 -0.714844 22.820312 0.714844 26.9375 0.714844 C 36.78125 0.714844 44.566406 -7.515625 44.566406 -17.898438 C 44.566406 -28.28125 36.78125 -36.515625 26.9375 -36.515625 Z M 24.699219 -9.398438 C 19.957031 -9.398438 16.199219 -13.15625 16.199219 -17.898438 C 16.199219 -22.640625 19.957031 -26.402344 24.699219 -26.402344 C 29.445312 -26.402344 33.203125 -22.640625 33.203125 -17.898438 C 33.203125 -13.15625 29.445312 -9.398438 24.699219 -9.398438 Z M 24.699219 -9.398438 "/></g></g></g><g fill="#000000" fill-opacity="1"><g transform="translate(31.571859, 55.182985)"><g><path d="M 9.433594 0 L 9.433594 -2.722656 L 3.453125 -2.722656 L 3.453125 -9.203125 L 9.433594 -9.203125 L 9.433594 -11.941406 L 0.464844 -11.941406 L 0.464844 0 Z M 9.433594 0 "/></g></g></g><g fill="#000000" fill-opacity="1"><g transform="translate(47.360967, 55.182985)"><g><path d="M 9.433594 0 L 9.433594 -11.941406 L 0.464844 -11.941406 L 0.464844 0 Z M 6.445312 -2.722656 L 3.453125 -2.722656 L 3.453125 -9.203125 L 6.445312 -9.203125 Z M 6.445312 -2.722656 "/></g></g></g><g fill="#000000" fill-opacity="1"><g transform="translate(63.257493, 55.182985)"><g><path d="M 12.207031 0 L 12.207031 -11.941406 L 0.269531 -11.941406 L 0.269531 -9.203125 L 0.859375 -9.203125 L 0.859375 0 L 3.257812 0 L 3.257812 -9.203125 L 4.742188 -9.203125 L 4.742188 0 L 7.734375 0 L 7.734375 -9.203125 L 9.21875 -9.203125 L 9.21875 0 Z M 12.207031 0 "/></g></g></g><g fill="#000000" fill-opacity="1"><g transform="translate(81.928762, 55.182985)"><g><path d="M 9.433594 -3.328125 L 9.433594 -11.941406 L 0.464844 -11.941406 L 0.464844 0 L 3.453125 0 L 3.453125 -3.328125 Z M 6.445312 -6.050781 L 3.453125 -6.050781 L 3.453125 -9.203125 L 6.445312 -9.203125 Z M 6.445312 -6.050781 "/></g></g></g><g fill="#000000" fill-opacity="1"><g transform="translate(97.77159, 55.182985)"><g><path d="M 9.398438 0 L 9.398438 -2.722656 L 3.453125 -2.722656 L 3.453125 -4.691406 L 9.398438 -4.691406 L 9.398438 -7.320312 L 3.453125 -7.320312 L 3.453125 -9.203125 L 9.398438 -9.203125 L 9.398438 -11.941406 L 0.464844 -11.941406 L 0.464844 0 Z M 9.398438 0 "/></g></g></g><g fill="#000000" fill-opacity="1"><g transform="translate(113.63231, 55.182985)"><g><path d="M 9.238281 -9.203125 L 9.238281 -11.941406 L 0.269531 -11.941406 L 0.269531 -9.203125 L 3.277344 -9.203125 L 3.277344 0 L 6.265625 0 L 6.265625 -9.203125 Z M 9.238281 -9.203125 "/></g></g></g><g fill="#000000" fill-opacity="1"><g transform="translate(129.134994, 55.182985)"><g><path d="M 3.453125 0 L 3.453125 -11.941406 L 0.464844 -11.941406 L 0.464844 0 Z M 3.453125 0 "/></g></g></g><g fill="#000000" fill-opacity="1"><g transform="translate(139.052404, 55.182985)"><g><path d="M 9.238281 -9.203125 L 9.238281 -11.941406 L 0.269531 -11.941406 L 0.269531 -9.203125 L 3.277344 -9.203125 L 3.277344 0 L 6.265625 0 L 6.265625 -9.203125 Z M 9.238281 -9.203125 "/></g></g></g><g fill="#000000" fill-opacity="1"><g transform="translate(154.555093, 55.182985)"><g><path d="M 3.453125 0 L 3.453125 -11.941406 L 0.464844 -11.941406 L 0.464844 0 Z M 3.453125 0 "/></g></g></g><g fill="#000000" fill-opacity="1"><g transform="translate(164.472502, 55.182985)"><g><path d="M 9.828125 -9.203125 L 9.828125 -11.941406 L 6.246094 -11.941406 L 6.246094 -2.722656 L 3.847656 -2.722656 L 3.847656 -11.941406 L 0.269531 -11.941406 L 0.269531 -9.203125 L 0.859375 -9.203125 L 0.859375 0 L 9.238281 0 L 9.238281 -9.203125 Z M 9.828125 -9.203125 "/></g></g></g><g fill="#000000" fill-opacity="1"><g transform="translate(180.565944, 55.182985)"><g><path d="M 9.398438 0 L 9.398438 -2.722656 L 3.453125 -2.722656 L 3.453125 -4.691406 L 9.398438 -4.691406 L 9.398438 -7.320312 L 3.453125 -7.320312 L 3.453125 -9.203125 L 9.398438 -9.203125 L 9.398438 -11.941406 L 0.464844 -11.941406 L 0.464844 0 Z M 9.398438 0 "/></g></g></g><g fill="#000000" fill-opacity="1"><g transform="translate(179.854469, 229.296294)"><g><path d="M 9.433594 -3.328125 L 9.433594 -11.941406 L 0.464844 -11.941406 L 0.464844 0 L 3.453125 0 L 3.453125 -3.328125 Z M 6.445312 -6.050781 L 3.453125 -6.050781 L 3.453125 -9.203125 L 6.445312 -9.203125 Z M 6.445312 -6.050781 "/></g></g></g><g fill="#000000" fill-opacity="1"><g transform="translate(195.697298, 229.296294)"><g><path d="M 9.433594 0 L 7.679688 -3.328125 L 9.433594 -3.328125 L 9.433594 -11.941406 L 0.464844 -11.941406 L 0.464844 0 L 3.453125 0 L 3.453125 -3.328125 L 4.742188 -3.328125 L 6.445312 0 Z M 6.445312 -6.050781 L 3.453125 -6.050781 L 3.453125 -9.203125 L 6.445312 -9.203125 Z M 6.445312 -6.050781 "/></g></g></g><g fill="#000000" fill-opacity="1"><g transform="translate(211.593824, 229.296294)"><g><path d="M 9.433594 0 L 9.433594 -11.941406 L 0.464844 -11.941406 L 0.464844 0 Z M 6.445312 -2.722656 L 3.453125 -2.722656 L 3.453125 -9.203125 L 6.445312 -9.203125 Z M 6.445312 -2.722656 "/></g></g></g><g fill="#000000" fill-opacity="1"><g transform="translate(227.49035, 229.296294)"><g><path d="M 9.433594 0 L 9.433594 -4.691406 L 6.445312 -4.691406 L 6.445312 -2.722656 L 3.453125 -2.722656 L 3.453125 -9.203125 L 9.433594 -9.203125 L 9.433594 -11.941406 L 0.464844 -11.941406 L 0.464844 0 Z M 9.433594 0 "/></g></g></g><g fill="#000000" fill-opacity="1"><g transform="translate(243.386876, 229.296294)"><g><path d="M 9.433594 0 L 7.679688 -3.328125 L 9.433594 -3.328125 L 9.433594 -11.941406 L 0.464844 -11.941406 L 0.464844 0 L 3.453125 0 L 3.453125 -3.328125 L 4.742188 -3.328125 L 6.445312 0 Z M 6.445312 -6.050781 L 3.453125 -6.050781 L 3.453125 -9.203125 L 6.445312 -9.203125 Z M 6.445312 -6.050781 "/></g></g></g><g fill="#000000" fill-opacity="1"><g transform="translate(259.283402, 229.296294)"><g><path d="M 9.433594 0 L 9.433594 -11.941406 L 0.464844 -11.941406 L 0.464844 0 L 3.453125 0 L 3.453125 -3.328125 L 6.445312 -3.328125 L 6.445312 0 Z M 6.445312 -6.050781 L 3.453125 -6.050781 L 3.453125 -9.203125 L 6.445312 -9.203125 Z M 6.445312 -6.050781 "/></g></g></g><g fill="#000000" fill-opacity="1"><g transform="translate(275.179928, 229.296294)"><g><path d="M 12.207031 0 L 12.207031 -11.941406 L 0.269531 -11.941406 L 0.269531 -9.203125 L 0.859375 -9.203125 L 0.859375 0 L 3.257812 0 L 3.257812 -9.203125 L 4.742188 -9.203125 L 4.742188 0 L 7.734375 0 L 7.734375 -9.203125 L 9.21875 -9.203125 L 9.21875 0 Z M 12.207031 0 "/></g></g></g><g fill="#000000" fill-opacity="1"><g transform="translate(293.851191, 229.296294)"><g><path d="M 12.207031 0 L 12.207031 -11.941406 L 0.269531 -11.941406 L 0.269531 -9.203125 L 0.859375 -9.203125 L 0.859375 0 L 3.257812 0 L 3.257812 -9.203125 L 4.742188 -9.203125 L 4.742188 0 L 7.734375 0 L 7.734375 -9.203125 L 9.21875 -9.203125 L 9.21875 0 Z M 12.207031 0 "/></g></g></g><g fill="#000000" fill-opacity="1"><g transform="translate(312.522465, 229.296294)"><g><path d="M 3.453125 0 L 3.453125 -11.941406 L 0.464844 -11.941406 L 0.464844 0 Z M 3.453125 0 "/></g></g></g><g fill="#000000" fill-opacity="1"><g transform="translate(322.439875, 229.296294)"><g><path d="M 9.238281 0 L 9.238281 -11.941406 L 0.269531 -11.941406 L 0.269531 -9.203125 L 0.859375 -9.203125 L 0.859375 0 L 3.257812 0 L 3.257812 -9.203125 L 6.246094 -9.203125 L 6.246094 0 Z M 9.238281 0 "/></g></g></g><g fill="#000000" fill-opacity="1"><g transform="translate(338.139474, 229.296294)"><g><path d="M 9.433594 0 L 9.433594 -4.691406 L 6.445312 -4.691406 L 6.445312 -2.722656 L 3.453125 -2.722656 L 3.453125 -9.203125 L 9.433594 -9.203125 L 9.433594 -11.941406 L 0.464844 -11.941406 L 0.464844 0 Z M 9.433594 0 "/></g></g></g></svg>