<svg xmlns="http://www.w3.org/2000/svg" xmlns:xlink="http://www.w3.org/1999/xlink" width="500" zoomAndPan="magnify" viewBox="0 0 375 374.999991" height="500" preserveAspectRatio="xMidYMid meet" version="1.0"><defs><g/><clipPath id="5bbe316252"><path d="M 9.273438 150 L 188 150 L 188 307.640625 L 9.273438 307.640625 Z M 9.273438 150 " clip-rule="nonzero"/></clipPath><clipPath id="85f015273a"><path d="M 187 67.640625 L 365.523438 67.640625 L 365.523438 225 L 187 225 Z M 187 67.640625 " clip-rule="nonzero"/></clipPath></defs><rect x="-37.5" width="450" fill="#ffffff" y="-37.499999" height="449.999989" fill-opacity="1"/><rect x="-37.5" width="450" fill="#f3f5f9" y="-37.499999" height="449.999989" fill-opacity="1"/><g clip-path="url(#5bbe316252)"><path fill="#0652e9" d="M 129.296875 261.429688 L 129.296875 283.125 L 31.039062 237.476562 L 31.039062 219.871094 L 129.296875 174.222656 L 129.296875 195.925781 L 54.988281 228.46875 L 54.988281 228.878906 Z M 187.648438 150.113281 L 23.335938 150.113281 C 15.578125 150.113281 9.289062 156.402344 9.289062 164.164062 L 9.289062 293.1875 C 9.289062 300.945312 15.578125 307.234375 23.335938 307.234375 L 142.035156 307.234375 L 187.648438 150.113281 " fill-opacity="1" fill-rule="nonzero"/></g><g clip-path="url(#85f015273a)"><path fill="#38b6ff" d="M 343.992188 155.695312 L 245.742188 200.730469 L 245.742188 179.027344 L 321.683594 146.484375 L 321.683594 146.074219 L 245.742188 113.523438 L 245.742188 91.828125 L 343.992188 136.863281 Z M 233.269531 67.71875 L 187.648438 224.839844 L 351.699219 224.839844 C 359.457031 224.839844 365.746094 218.550781 365.746094 210.789062 L 365.746094 81.761719 C 365.746094 74.007812 359.457031 67.71875 351.699219 67.71875 L 233.269531 67.71875 " fill-opacity="1" fill-rule="nonzero"/></g><g fill="#000000" fill-opacity="1"><g transform="translate(28.132663, 102.666568)"><g><path d="M 9.640625 0 L 9.640625 -2.78125 L 3.53125 -2.78125 L 3.53125 -9.402344 L 9.640625 -9.402344 L 9.640625 -12.203125 L 0.476562 -12.203125 L 0.476562 0 Z M 9.640625 0 "/></g></g></g><g fill="#000000" fill-opacity="1"><g transform="translate(44.270021, 102.666568)"><g><path d="M 9.640625 0 L 9.640625 -12.203125 L 0.476562 -12.203125 L 0.476562 0 Z M 6.585938 -2.78125 L 3.53125 -2.78125 L 3.53125 -9.402344 L 6.585938 -9.402344 Z M 6.585938 -2.78125 "/></g></g></g><g fill="#000000" fill-opacity="1"><g transform="translate(60.517165, 102.666568)"><g><path d="M 12.476562 0 L 12.476562 -12.203125 L 0.273438 -12.203125 L 0.273438 -9.402344 L 0.878906 -9.402344 L 0.878906 0 L 3.328125 0 L 3.328125 -9.402344 L 4.847656 -9.402344 L 4.847656 0 L 7.902344 0 L 7.902344 -9.402344 L 9.421875 -9.402344 L 9.421875 0 Z M 12.476562 0 "/></g></g></g><g fill="#000000" fill-opacity="1"><g transform="translate(79.600253, 102.666568)"><g><path d="M 9.640625 -3.402344 L 9.640625 -12.203125 L 0.476562 -12.203125 L 0.476562 0 L 3.53125 0 L 3.53125 -3.402344 Z M 6.585938 -6.183594 L 3.53125 -6.183594 L 3.53125 -9.402344 L 6.585938 -9.402344 Z M 6.585938 -6.183594 "/></g></g></g><g fill="#000000" fill-opacity="1"><g transform="translate(95.792516, 102.666568)"><g><path d="M 9.605469 0 L 9.605469 -2.78125 L 3.53125 -2.78125 L 3.53125 -4.792969 L 9.605469 -4.792969 L 9.605469 -7.484375 L 3.53125 -7.484375 L 3.53125 -9.402344 L 9.605469 -9.402344 L 9.605469 -12.203125 L 0.476562 -12.203125 L 0.476562 0 Z M 9.605469 0 "/></g></g></g><g fill="#000000" fill-opacity="1"><g transform="translate(112.003065, 102.666568)"><g><path d="M 9.441406 -9.402344 L 9.441406 -12.203125 L 0.273438 -12.203125 L 0.273438 -9.402344 L 3.347656 -9.402344 L 3.347656 0 L 6.402344 0 L 6.402344 -9.402344 Z M 9.441406 -9.402344 "/></g></g></g><g fill="#000000" fill-opacity="1"><g transform="translate(127.847681, 102.666568)"><g><path d="M 3.53125 0 L 3.53125 -12.203125 L 0.476562 -12.203125 L 0.476562 0 Z M 3.53125 0 "/></g></g></g><g fill="#000000" fill-opacity="1"><g transform="translate(137.983832, 102.666568)"><g><path d="M 9.441406 -9.402344 L 9.441406 -12.203125 L 0.273438 -12.203125 L 0.273438 -9.402344 L 3.347656 -9.402344 L 3.347656 0 L 6.402344 0 L 6.402344 -9.402344 Z M 9.441406 -9.402344 "/></g></g></g><g fill="#000000" fill-opacity="1"><g transform="translate(153.828453, 102.666568)"><g><path d="M 3.53125 0 L 3.53125 -12.203125 L 0.476562 -12.203125 L 0.476562 0 Z M 3.53125 0 "/></g></g></g><g fill="#000000" fill-opacity="1"><g transform="translate(163.964604, 102.666568)"><g><path d="M 10.042969 -9.402344 L 10.042969 -12.203125 L 6.386719 -12.203125 L 6.386719 -2.78125 L 3.933594 -2.78125 L 3.933594 -12.203125 L 0.273438 -12.203125 L 0.273438 -9.402344 L 0.878906 -9.402344 L 0.878906 0 L 9.441406 0 L 9.441406 -9.402344 Z M 10.042969 -9.402344 "/></g></g></g><g fill="#000000" fill-opacity="1"><g transform="translate(180.413008, 102.666568)"><g><path d="M 9.605469 0 L 9.605469 -2.78125 L 3.53125 -2.78125 L 3.53125 -4.792969 L 9.605469 -4.792969 L 9.605469 -7.484375 L 3.53125 -7.484375 L 3.53125 -9.402344 L 9.605469 -9.402344 L 9.605469 -12.203125 L 0.476562 -12.203125 L 0.476562 0 Z M 9.605469 0 "/></g></g></g><g fill="#000000" fill-opacity="1"><g transform="translate(179.685819, 280.620316)"><g><path d="M 9.640625 -3.402344 L 9.640625 -12.203125 L 0.476562 -12.203125 L 0.476562 0 L 3.53125 0 L 3.53125 -3.402344 Z M 6.585938 -6.183594 L 3.53125 -6.183594 L 3.53125 -9.402344 L 6.585938 -9.402344 Z M 6.585938 -6.183594 "/></g></g></g><g fill="#000000" fill-opacity="1"><g transform="translate(195.878082, 280.620316)"><g><path d="M 9.640625 0 L 7.847656 -3.402344 L 9.640625 -3.402344 L 9.640625 -12.203125 L 0.476562 -12.203125 L 0.476562 0 L 3.53125 0 L 3.53125 -3.402344 L 4.847656 -3.402344 L 6.585938 0 Z M 6.585938 -6.183594 L 3.53125 -6.183594 L 3.53125 -9.402344 L 6.585938 -9.402344 Z M 6.585938 -6.183594 "/></g></g></g><g fill="#000000" fill-opacity="1"><g transform="translate(212.125226, 280.620316)"><g><path d="M 9.640625 0 L 9.640625 -12.203125 L 0.476562 -12.203125 L 0.476562 0 Z M 6.585938 -2.78125 L 3.53125 -2.78125 L 3.53125 -9.402344 L 6.585938 -9.402344 Z M 6.585938 -2.78125 "/></g></g></g><g fill="#000000" fill-opacity="1"><g transform="translate(228.372371, 280.620316)"><g><path d="M 9.640625 0 L 9.640625 -4.792969 L 6.585938 -4.792969 L 6.585938 -2.78125 L 3.53125 -2.78125 L 3.53125 -9.402344 L 9.640625 -9.402344 L 9.640625 -12.203125 L 0.476562 -12.203125 L 0.476562 0 Z M 9.640625 0 "/></g></g></g><g fill="#000000" fill-opacity="1"><g transform="translate(244.619516, 280.620316)"><g><path d="M 9.640625 0 L 7.847656 -3.402344 L 9.640625 -3.402344 L 9.640625 -12.203125 L 0.476562 -12.203125 L 0.476562 0 L 3.53125 0 L 3.53125 -3.402344 L 4.847656 -3.402344 L 6.585938 0 Z M 6.585938 -6.183594 L 3.53125 -6.183594 L 3.53125 -9.402344 L 6.585938 -9.402344 Z M 6.585938 -6.183594 "/></g></g></g><g fill="#000000" fill-opacity="1"><g transform="translate(260.86666, 280.620316)"><g><path d="M 9.640625 0 L 9.640625 -12.203125 L 0.476562 -12.203125 L 0.476562 0 L 3.53125 0 L 3.53125 -3.402344 L 6.585938 -3.402344 L 6.585938 0 Z M 6.585938 -6.183594 L 3.53125 -6.183594 L 3.53125 -9.402344 L 6.585938 -9.402344 Z M 6.585938 -6.183594 "/></g></g></g><g fill="#000000" fill-opacity="1"><g transform="translate(277.113805, 280.620316)"><g><path d="M 12.476562 0 L 12.476562 -12.203125 L 0.273438 -12.203125 L 0.273438 -9.402344 L 0.878906 -9.402344 L 0.878906 0 L 3.328125 0 L 3.328125 -9.402344 L 4.847656 -9.402344 L 4.847656 0 L 7.902344 0 L 7.902344 -9.402344 L 9.421875 -9.402344 L 9.421875 0 Z M 12.476562 0 "/></g></g></g><g fill="#000000" fill-opacity="1"><g transform="translate(296.196887, 280.620316)"><g><path d="M 12.476562 0 L 12.476562 -12.203125 L 0.273438 -12.203125 L 0.273438 -9.402344 L 0.878906 -9.402344 L 0.878906 0 L 3.328125 0 L 3.328125 -9.402344 L 4.847656 -9.402344 L 4.847656 0 L 7.902344 0 L 7.902344 -9.402344 L 9.421875 -9.402344 L 9.421875 0 Z M 12.476562 0 "/></g></g></g><g fill="#000000" fill-opacity="1"><g transform="translate(315.279981, 280.620316)"><g><path d="M 3.53125 0 L 3.53125 -12.203125 L 0.476562 -12.203125 L 0.476562 0 Z M 3.53125 0 "/></g></g></g><g fill="#000000" fill-opacity="1"><g transform="translate(325.416132, 280.620316)"><g><path d="M 9.441406 0 L 9.441406 -12.203125 L 0.273438 -12.203125 L 0.273438 -9.402344 L 0.878906 -9.402344 L 0.878906 0 L 3.328125 0 L 3.328125 -9.402344 L 6.386719 -9.402344 L 6.386719 0 Z M 9.441406 0 "/></g></g></g><g fill="#000000" fill-opacity="1"><g transform="translate(341.462006, 280.620316)"><g><path d="M 9.640625 0 L 9.640625 -4.792969 L 6.585938 -4.792969 L 6.585938 -2.78125 L 3.53125 -2.78125 L 3.53125 -9.402344 L 9.640625 -9.402344 L 9.640625 -12.203125 L 0.476562 -12.203125 L 0.476562 0 Z M 9.640625 0 "/></g></g></g></svg>