<svg xmlns="http://www.w3.org/2000/svg" xmlns:xlink="http://www.w3.org/1999/xlink" width="500" zoomAndPan="magnify" viewBox="0 0 375 374.999991" height="500" preserveAspectRatio="xMidYMid meet" version="1.0"><defs><g/><clipPath id="443fda3c10"><path d="M 28.199219 87 L 188 87 L 188 228 L 28.199219 228 Z M 28.199219 87 " clip-rule="nonzero"/></clipPath><clipPath id="335f2d2824"><path d="M 187 13.726562 L 346.949219 13.726562 L 346.949219 155 L 187 155 Z M 187 13.726562 " clip-rule="nonzero"/></clipPath></defs><rect x="-37.5" width="450" fill="#ffffff" y="-37.499999" height="449.999989" fill-opacity="1"/><rect x="-37.5" width="450" fill="#0f1120" y="-37.499999" height="449.999989" fill-opacity="1"/><g clip-path="url(#443fda3c10)"><path fill="#0652e9" d="M 135.480469 186.933594 L 135.480469 206.328125 L 47.65625 165.527344 L 47.65625 149.792969 L 135.480469 108.988281 L 135.480469 128.386719 L 69.0625 157.476562 L 69.0625 157.839844 Z M 187.636719 87.441406 L 40.769531 87.441406 C 33.835938 87.441406 28.214844 93.0625 28.214844 100 L 28.214844 215.324219 C 28.214844 222.253906 33.835938 227.875 40.769531 227.875 L 146.867188 227.875 L 187.636719 87.441406 " fill-opacity="1" fill-rule="nonzero"/></g><g clip-path="url(#335f2d2824)"><path fill="#62e1e9" d="M 327.378906 92.429688 L 239.558594 132.679688 L 239.558594 113.285156 L 307.433594 84.195312 L 307.433594 83.828125 L 239.558594 54.738281 L 239.558594 35.34375 L 327.378906 75.597656 Z M 228.410156 13.796875 L 187.636719 154.230469 L 334.265625 154.230469 C 341.199219 154.230469 346.820312 148.609375 346.820312 141.671875 L 346.820312 26.347656 C 346.820312 19.417969 341.199219 13.796875 334.265625 13.796875 L 228.410156 13.796875 " fill-opacity="1" fill-rule="nonzero"/></g><g fill="#ffffff" fill-opacity="1"><g transform="translate(45.057486, 45.031203)"><g><path d="M 8.617188 0 L 8.617188 -2.484375 L 3.15625 -2.484375 L 3.15625 -8.40625 L 8.617188 -8.40625 L 8.617188 -10.90625 L 0.425781 -10.90625 L 0.425781 0 Z M 8.617188 0 "/></g></g></g><g fill="#ffffff" fill-opacity="1"><g transform="translate(59.481056, 45.031203)"><g><path d="M 8.617188 0 L 8.617188 -10.90625 L 0.425781 -10.90625 L 0.425781 0 Z M 5.886719 -2.484375 L 3.15625 -2.484375 L 3.15625 -8.40625 L 5.886719 -8.40625 Z M 5.886719 -2.484375 "/></g></g></g><g fill="#ffffff" fill-opacity="1"><g transform="translate(74.002753, 45.031203)"><g><path d="M 11.152344 0 L 11.152344 -10.90625 L 0.246094 -10.90625 L 0.246094 -8.40625 L 0.785156 -8.40625 L 0.785156 0 L 2.976562 0 L 2.976562 -8.40625 L 4.332031 -8.40625 L 4.332031 0 L 7.066406 0 L 7.066406 -8.40625 L 8.421875 -8.40625 L 8.421875 0 Z M 11.152344 0 "/></g></g></g><g fill="#ffffff" fill-opacity="1"><g transform="translate(91.059217, 45.031203)"><g><path d="M 8.617188 -3.042969 L 8.617188 -10.90625 L 0.425781 -10.90625 L 0.425781 0 L 3.15625 0 L 3.15625 -3.042969 Z M 5.886719 -5.527344 L 3.15625 -5.527344 L 3.15625 -8.40625 L 5.886719 -8.40625 Z M 5.886719 -5.527344 "/></g></g></g><g fill="#ffffff" fill-opacity="1"><g transform="translate(105.531861, 45.031203)"><g><path d="M 8.585938 0 L 8.585938 -2.484375 L 3.15625 -2.484375 L 3.15625 -4.285156 L 8.585938 -4.285156 L 8.585938 -6.6875 L 3.15625 -6.6875 L 3.15625 -8.40625 L 8.585938 -8.40625 L 8.585938 -10.90625 L 0.425781 -10.90625 L 0.425781 0 Z M 8.585938 0 "/></g></g></g><g fill="#ffffff" fill-opacity="1"><g transform="translate(120.020849, 45.031203)"><g><path d="M 8.4375 -8.40625 L 8.4375 -10.90625 L 0.246094 -10.90625 L 0.246094 -8.40625 L 2.992188 -8.40625 L 2.992188 0 L 5.722656 0 L 5.722656 -8.40625 Z M 8.4375 -8.40625 "/></g></g></g><g fill="#ffffff" fill-opacity="1"><g transform="translate(134.182766, 45.031203)"><g><path d="M 3.15625 0 L 3.15625 -10.90625 L 0.425781 -10.90625 L 0.425781 0 Z M 3.15625 0 "/></g></g></g><g fill="#ffffff" fill-opacity="1"><g transform="translate(143.242458, 45.031203)"><g><path d="M 8.4375 -8.40625 L 8.4375 -10.90625 L 0.246094 -10.90625 L 0.246094 -8.40625 L 2.992188 -8.40625 L 2.992188 0 L 5.722656 0 L 5.722656 -8.40625 Z M 8.4375 -8.40625 "/></g></g></g><g fill="#ffffff" fill-opacity="1"><g transform="translate(157.40438, 45.031203)"><g><path d="M 3.15625 0 L 3.15625 -10.90625 L 0.425781 -10.90625 L 0.425781 0 Z M 3.15625 0 "/></g></g></g><g fill="#ffffff" fill-opacity="1"><g transform="translate(166.464072, 45.031203)"><g><path d="M 8.976562 -8.40625 L 8.976562 -10.90625 L 5.707031 -10.90625 L 5.707031 -2.484375 L 3.515625 -2.484375 L 3.515625 -10.90625 L 0.246094 -10.90625 L 0.246094 -8.40625 L 0.785156 -8.40625 L 0.785156 0 L 8.4375 0 L 8.4375 -8.40625 Z M 8.976562 -8.40625 "/></g></g></g><g fill="#ffffff" fill-opacity="1"><g transform="translate(181.165654, 45.031203)"><g><path d="M 8.585938 0 L 8.585938 -2.484375 L 3.15625 -2.484375 L 3.15625 -4.285156 L 8.585938 -4.285156 L 8.585938 -6.6875 L 3.15625 -6.6875 L 3.15625 -8.40625 L 8.585938 -8.40625 L 8.585938 -10.90625 L 0.425781 -10.90625 L 0.425781 0 Z M 8.585938 0 "/></g></g></g><g fill="#ffffff" fill-opacity="1"><g transform="translate(180.515687, 204.086212)"><g><path d="M 8.617188 -3.042969 L 8.617188 -10.90625 L 0.425781 -10.90625 L 0.425781 0 L 3.15625 0 L 3.15625 -3.042969 Z M 5.886719 -5.527344 L 3.15625 -5.527344 L 3.15625 -8.40625 L 5.886719 -8.40625 Z M 5.886719 -5.527344 "/></g></g></g><g fill="#ffffff" fill-opacity="1"><g transform="translate(194.988331, 204.086212)"><g><path d="M 8.617188 0 L 7.015625 -3.042969 L 8.617188 -3.042969 L 8.617188 -10.90625 L 0.425781 -10.90625 L 0.425781 0 L 3.15625 0 L 3.15625 -3.042969 L 4.332031 -3.042969 L 5.886719 0 Z M 5.886719 -5.527344 L 3.15625 -5.527344 L 3.15625 -8.40625 L 5.886719 -8.40625 Z M 5.886719 -5.527344 "/></g></g></g><g fill="#ffffff" fill-opacity="1"><g transform="translate(209.510028, 204.086212)"><g><path d="M 8.617188 0 L 8.617188 -10.90625 L 0.425781 -10.90625 L 0.425781 0 Z M 5.886719 -2.484375 L 3.15625 -2.484375 L 3.15625 -8.40625 L 5.886719 -8.40625 Z M 5.886719 -2.484375 "/></g></g></g><g fill="#ffffff" fill-opacity="1"><g transform="translate(224.031726, 204.086212)"><g><path d="M 8.617188 0 L 8.617188 -4.285156 L 5.886719 -4.285156 L 5.886719 -2.484375 L 3.15625 -2.484375 L 3.15625 -8.40625 L 8.617188 -8.40625 L 8.617188 -10.90625 L 0.425781 -10.90625 L 0.425781 0 Z M 8.617188 0 "/></g></g></g><g fill="#ffffff" fill-opacity="1"><g transform="translate(238.553423, 204.086212)"><g><path d="M 8.617188 0 L 7.015625 -3.042969 L 8.617188 -3.042969 L 8.617188 -10.90625 L 0.425781 -10.90625 L 0.425781 0 L 3.15625 0 L 3.15625 -3.042969 L 4.332031 -3.042969 L 5.886719 0 Z M 5.886719 -5.527344 L 3.15625 -5.527344 L 3.15625 -8.40625 L 5.886719 -8.40625 Z M 5.886719 -5.527344 "/></g></g></g><g fill="#ffffff" fill-opacity="1"><g transform="translate(253.075121, 204.086212)"><g><path d="M 8.617188 0 L 8.617188 -10.90625 L 0.425781 -10.90625 L 0.425781 0 L 3.15625 0 L 3.15625 -3.042969 L 5.886719 -3.042969 L 5.886719 0 Z M 5.886719 -5.527344 L 3.15625 -5.527344 L 3.15625 -8.40625 L 5.886719 -8.40625 Z M 5.886719 -5.527344 "/></g></g></g><g fill="#ffffff" fill-opacity="1"><g transform="translate(267.596818, 204.086212)"><g><path d="M 11.152344 0 L 11.152344 -10.90625 L 0.246094 -10.90625 L 0.246094 -8.40625 L 0.785156 -8.40625 L 0.785156 0 L 2.976562 0 L 2.976562 -8.40625 L 4.332031 -8.40625 L 4.332031 0 L 7.066406 0 L 7.066406 -8.40625 L 8.421875 -8.40625 L 8.421875 0 Z M 11.152344 0 "/></g></g></g><g fill="#ffffff" fill-opacity="1"><g transform="translate(284.653276, 204.086212)"><g><path d="M 11.152344 0 L 11.152344 -10.90625 L 0.246094 -10.90625 L 0.246094 -8.40625 L 0.785156 -8.40625 L 0.785156 0 L 2.976562 0 L 2.976562 -8.40625 L 4.332031 -8.40625 L 4.332031 0 L 7.066406 0 L 7.066406 -8.40625 L 8.421875 -8.40625 L 8.421875 0 Z M 11.152344 0 "/></g></g></g><g fill="#ffffff" fill-opacity="1"><g transform="translate(301.709745, 204.086212)"><g><path d="M 3.15625 0 L 3.15625 -10.90625 L 0.425781 -10.90625 L 0.425781 0 Z M 3.15625 0 "/></g></g></g><g fill="#ffffff" fill-opacity="1"><g transform="translate(310.769437, 204.086212)"><g><path d="M 8.4375 0 L 8.4375 -10.90625 L 0.246094 -10.90625 L 0.246094 -8.40625 L 0.785156 -8.40625 L 0.785156 0 L 2.976562 0 L 2.976562 -8.40625 L 5.707031 -8.40625 L 5.707031 0 Z M 8.4375 0 "/></g></g></g><g fill="#ffffff" fill-opacity="1"><g transform="translate(325.111239, 204.086212)"><g><path d="M 8.617188 0 L 8.617188 -4.285156 L 5.886719 -4.285156 L 5.886719 -2.484375 L 3.15625 -2.484375 L 3.15625 -8.40625 L 8.617188 -8.40625 L 8.617188 -10.90625 L 0.425781 -10.90625 L 0.425781 0 Z M 8.617188 0 "/></g></g></g><g fill="#ffffff" fill-opacity="1"><g transform="translate(44.898269, 305.967411)"><g><path d="M 28.207031 0.652344 C 37.933594 0.652344 46.355469 -4.824219 50.523438 -12.835938 L 41.203125 -17.660156 C 38.832031 -13 34.011719 -9.890625 28.207031 -9.890625 C 19.949219 -9.890625 13.652344 -16.269531 13.652344 -24.527344 C 13.652344 -32.785156 19.949219 -39.160156 28.207031 -39.160156 C 34.011719 -39.160156 38.832031 -36.054688 41.203125 -31.394531 L 50.523438 -36.21875 C 46.355469 -44.230469 37.933594 -49.707031 28.207031 -49.707031 C 14.308594 -49.707031 3.023438 -38.425781 3.023438 -24.527344 C 3.023438 -10.628906 14.308594 0.652344 28.207031 0.652344 Z M 28.207031 0.652344 "/></g></g></g><g fill="#ffffff" fill-opacity="1"><g transform="translate(100.423638, 305.967411)"><g><path d="M 25.671875 -49.050781 L 4.824219 -49.050781 L 4.824219 0 L 15.613281 0 L 15.613281 -19.867188 L 25.671875 -19.867188 C 33.929688 -19.867188 40.304688 -25.996094 40.304688 -34.253906 C 40.304688 -42.429688 33.929688 -49.050781 25.671875 -49.050781 Z M 23.953125 -28.777344 L 15.613281 -28.777344 L 15.613281 -39.570312 L 23.953125 -39.570312 C 27.386719 -39.570312 30.003906 -37.363281 30.003906 -34.171875 C 30.003906 -30.902344 27.386719 -28.777344 23.953125 -28.777344 Z M 23.953125 -28.777344 "/></g></g></g><g fill="#ffffff" fill-opacity="1"><g transform="translate(143.931671, 305.967411)"><g/></g></g><g fill="#ffffff" fill-opacity="1"><g transform="translate(166.429824, 305.967411)"><g><path d="M 28.207031 0.652344 C 37.933594 0.652344 46.355469 -4.824219 50.523438 -12.835938 L 41.203125 -17.660156 C 38.832031 -13 34.011719 -9.890625 28.207031 -9.890625 C 19.949219 -9.890625 13.652344 -16.269531 13.652344 -24.527344 C 13.652344 -32.785156 19.949219 -39.160156 28.207031 -39.160156 C 34.011719 -39.160156 38.832031 -36.054688 41.203125 -31.394531 L 50.523438 -36.21875 C 46.355469 -44.230469 37.933594 -49.707031 28.207031 -49.707031 C 14.308594 -49.707031 3.023438 -38.425781 3.023438 -24.527344 C 3.023438 -10.628906 14.308594 0.652344 28.207031 0.652344 Z M 28.207031 0.652344 "/></g></g></g><g fill="#ffffff" fill-opacity="1"><g transform="translate(221.955196, 305.967411)"><g><path d="M 4.824219 0 L 15.289062 0 L 15.289062 -56 L 4.824219 -56 Z M 4.824219 0 "/></g></g></g><g fill="#ffffff" fill-opacity="1"><g transform="translate(244.943871, 305.967411)"><g><path d="M 19.457031 0.652344 C 29.351562 0.652344 34.828125 -4.496094 34.828125 -12.507812 L 34.828125 -32.703125 L 24.445312 -32.703125 L 24.445312 -13.898438 C 24.445312 -10.792969 22.320312 -8.585938 19.457031 -8.585938 C 16.679688 -8.585938 14.550781 -10.792969 14.550781 -13.898438 L 14.550781 -32.703125 L 4.085938 -32.703125 L 4.085938 -12.507812 C 4.085938 -4.496094 9.566406 0.652344 19.457031 0.652344 Z M 19.457031 0.652344 "/></g></g></g><g fill="#ffffff" fill-opacity="1"><g transform="translate(286.816898, 305.967411)"><g><path d="M 24.609375 -33.355469 C 20.847656 -33.355469 17.742188 -32.046875 15.289062 -29.839844 L 15.289062 -56 L 4.824219 -56 L 4.824219 0 L 15.289062 0.0820312 L 15.289062 -2.863281 C 17.742188 -0.652344 20.847656 0.652344 24.609375 0.652344 C 33.601562 0.652344 40.714844 -6.867188 40.714844 -16.351562 C 40.714844 -25.835938 33.601562 -33.355469 24.609375 -33.355469 Z M 22.5625 -8.585938 C 18.230469 -8.585938 14.796875 -12.019531 14.796875 -16.351562 C 14.796875 -20.683594 18.230469 -24.117188 22.5625 -24.117188 C 26.898438 -24.117188 30.332031 -20.683594 30.332031 -16.351562 C 30.332031 -12.019531 26.898438 -8.585938 22.5625 -8.585938 Z M 22.5625 -8.585938 "/></g></g></g><g fill="#ffffff" fill-opacity="1"><g transform="translate(22.037206, 353.564428)"><g><path d="M 12.507812 0.28125 C 16.539062 0.28125 20.042969 -1.925781 21.902344 -5.1875 L 19.972656 -6.273438 C 18.535156 -3.679688 15.734375 -1.960938 12.507812 -1.960938 C 7.777344 -1.960938 3.960938 -5.746094 3.960938 -10.511719 C 3.960938 -15.277344 7.777344 -19.0625 12.507812 -19.0625 C 15.734375 -19.0625 18.535156 -17.34375 19.972656 -14.753906 L 21.902344 -15.839844 C 20.042969 -19.097656 16.539062 -21.304688 12.507812 -21.304688 C 6.550781 -21.304688 1.71875 -16.46875 1.71875 -10.511719 C 1.71875 -4.554688 6.550781 0.28125 12.507812 0.28125 Z M 12.507812 0.28125 "/></g></g></g><g fill="#ffffff" fill-opacity="1"><g transform="translate(54.485132, 353.564428)"><g><path d="M 12.507812 0.28125 C 18.5 0.28125 23.300781 -4.554688 23.300781 -10.511719 C 23.300781 -16.46875 18.5 -21.304688 12.507812 -21.304688 C 6.550781 -21.304688 1.71875 -16.46875 1.71875 -10.511719 C 1.71875 -4.554688 6.550781 0.28125 12.507812 0.28125 Z M 12.507812 -1.960938 C 7.777344 -1.960938 3.960938 -5.746094 3.960938 -10.511719 C 3.960938 -15.277344 7.777344 -19.0625 12.507812 -19.0625 C 17.273438 -19.0625 21.058594 -15.277344 21.058594 -10.511719 C 21.058594 -5.746094 17.273438 -1.960938 12.507812 -1.960938 Z M 12.507812 -1.960938 "/></g></g></g><g fill="#ffffff" fill-opacity="1"><g transform="translate(88.930383, 353.564428)"><g><path d="M 2.558594 0 L 8.304688 0 C 14.085938 0 18.816406 -4.695312 18.816406 -10.511719 C 18.816406 -16.328125 14.085938 -21.023438 8.304688 -21.023438 L 2.558594 -21.023438 Z M 4.765625 -2.242188 L 4.765625 -18.78125 L 8.269531 -18.78125 C 12.929688 -18.78125 16.574219 -15.242188 16.574219 -10.511719 C 16.574219 -5.78125 12.929688 -2.242188 8.269531 -2.242188 Z M 4.765625 -2.242188 "/></g></g></g><g fill="#ffffff" fill-opacity="1"><g transform="translate(118.855369, 353.564428)"><g><path d="M 14.226562 -18.851562 L 14.226562 -21.023438 L 2.734375 -21.023438 L 2.734375 0 L 14.226562 0 L 14.226562 -2.171875 L 4.976562 -2.171875 L 4.976562 -9.425781 L 13.035156 -9.425781 L 13.035156 -11.597656 L 4.976562 -11.597656 L 4.976562 -18.851562 Z M 14.226562 -18.851562 "/></g></g></g><g fill="#ffffff" fill-opacity="1"><g transform="translate(144.575471, 353.564428)"><g/></g></g><g fill="#ffffff" fill-opacity="1"><g transform="translate(162.411394, 353.564428)"><g><path d="M 26.246094 -21.023438 L 20.847656 -3.75 L 15.734375 -21.023438 L 12.578125 -21.023438 L 7.535156 -3.785156 L 2.171875 -21.023438 L -0.210938 -21.023438 L 6.378906 0 L 8.761719 0 L 14.15625 -18.640625 L 19.65625 0 L 22.003906 0 L 28.558594 -21.023438 Z M 26.246094 -21.023438 "/></g></g></g><g fill="#ffffff" fill-opacity="1"><g transform="translate(200.15046, 353.564428)"><g><path d="M 2.734375 0 L 4.976562 0 L 4.976562 -21.023438 L 2.734375 -21.023438 Z M 2.734375 0 "/></g></g></g><g fill="#ffffff" fill-opacity="1"><g transform="translate(217.215482, 353.564428)"><g><path d="M 14.191406 -21.023438 L 0.316406 -21.023438 L 0.316406 -18.78125 L 6.132812 -18.78125 L 6.132812 0 L 8.375 0 L 8.375 -18.78125 L 14.191406 -18.78125 Z M 14.191406 -21.023438 "/></g></g></g><g fill="#ffffff" fill-opacity="1"><g transform="translate(241.113474, 353.564428)"><g><path d="M 16.398438 -21.023438 L 16.398438 -11.632812 L 4.800781 -11.632812 L 4.800781 -21.023438 L 2.558594 -21.023438 L 2.558594 0 L 4.800781 0 L 4.800781 -9.390625 L 16.398438 -9.390625 L 16.398438 0 L 18.640625 0 L 18.640625 -21.023438 Z M 16.398438 -21.023438 "/></g></g></g><g fill="#ffffff" fill-opacity="1"><g transform="translate(271.70423, 353.564428)"><g/></g></g><g fill="#ffffff" fill-opacity="1"><g transform="translate(289.54014, 353.564428)"><g><path d="M 10.335938 0.28125 C 14.925781 0.28125 18.257812 -2.769531 18.257812 -6.902344 L 18.257812 -21.023438 L 16.011719 -21.023438 L 16.011719 -7.253906 C 16.011719 -4.203125 13.597656 -1.960938 10.335938 -1.960938 C 7.078125 -1.960938 4.695312 -4.203125 4.695312 -7.253906 L 4.695312 -21.023438 L 2.453125 -21.023438 L 2.453125 -6.902344 C 2.453125 -2.769531 5.78125 0.28125 10.335938 0.28125 Z M 10.335938 0.28125 "/></g></g></g><g fill="#ffffff" fill-opacity="1"><g transform="translate(319.640326, 353.564428)"><g><path d="M 7.847656 0.28125 C 11.421875 0.28125 14.332031 -1.855469 14.332031 -5.535156 C 14.332031 -12.683594 4.101562 -10.933594 4.101562 -15.945312 C 4.101562 -18.046875 5.816406 -19.0625 7.777344 -19.0625 C 9.390625 -19.0625 10.722656 -18.394531 11.5625 -17.203125 L 13.316406 -18.675781 C 12.160156 -20.148438 10.125 -21.304688 7.707031 -21.304688 C 4.484375 -21.304688 1.855469 -19.203125 1.855469 -15.769531 C 1.855469 -9.003906 12.089844 -10.6875 12.089844 -5.464844 C 12.089844 -3.222656 10.230469 -1.960938 7.882812 -1.960938 C 5.5 -1.960938 3.785156 -3.257812 3.046875 -5.1875 L 1.015625 -3.996094 C 2.101562 -1.402344 4.730469 0.28125 7.847656 0.28125 Z M 7.847656 0.28125 "/></g></g></g><g fill="#ffffff" fill-opacity="1"><g transform="translate(344.379276, 353.564428)"><g><path d="M 3.398438 -5.992188 L 5.117188 -5.992188 L 5.359375 -23.546875 L 3.1875 -23.546875 Z M 4.273438 0.28125 C 5.082031 0.28125 5.78125 -0.421875 5.78125 -1.226562 C 5.78125 -2.066406 5.082031 -2.734375 4.273438 -2.734375 C 3.46875 -2.734375 2.769531 -2.066406 2.769531 -1.226562 C 2.769531 -0.421875 3.46875 0.28125 4.273438 0.28125 Z M 4.273438 0.28125 "/></g></g></g></svg>