<svg xmlns="http://www.w3.org/2000/svg" xmlns:xlink="http://www.w3.org/1999/xlink" width="500" zoomAndPan="magnify" viewBox="0 0 375 374.999991" height="500" preserveAspectRatio="xMidYMid meet" version="1.0"><defs><g/><clipPath id="a66283afa0"><path d="M 72.386719 121 L 188 121 L 188 223.402344 L 72.386719 223.402344 Z M 72.386719 121 " clip-rule="nonzero"/></clipPath><clipPath id="f58bad0cec"><path d="M 187 67.675781 L 302.8125 67.675781 L 302.8125 171 L 187 171 Z M 187 67.675781 " clip-rule="nonzero"/></clipPath></defs><g clip-path="url(#a66283afa0)"><path fill="#0652e9" d="M 149.542969 194.035156 L 149.542969 208.179688 L 85.472656 178.417969 L 85.472656 166.9375 L 149.542969 137.171875 L 149.542969 151.324219 L 101.089844 172.542969 L 101.089844 172.808594 Z M 187.589844 121.449219 L 80.449219 121.449219 C 75.390625 121.449219 71.289062 125.550781 71.289062 130.613281 L 71.289062 214.742188 C 71.289062 219.800781 75.390625 223.902344 80.449219 223.902344 L 157.847656 223.902344 L 187.589844 121.449219 " fill-opacity="1" fill-rule="nonzero"/></g><g clip-path="url(#f58bad0cec)"><path fill="#62e1e9" d="M 289.535156 125.089844 L 225.46875 154.457031 L 225.46875 140.304688 L 274.988281 119.085938 L 274.988281 118.816406 L 225.46875 97.59375 L 225.46875 83.445312 L 289.535156 112.808594 Z M 217.335938 67.726562 L 187.589844 170.175781 L 294.5625 170.175781 C 299.617188 170.175781 303.71875 166.074219 303.71875 161.015625 L 303.71875 76.882812 C 303.71875 71.828125 299.617188 67.726562 294.5625 67.726562 L 217.335938 67.726562 " fill-opacity="1" fill-rule="nonzero"/></g><g fill="#ffffff" fill-opacity="1"><g transform="translate(84.584158, 91.465271)"><g><path d="M 6.226562 0 L 6.226562 -1.796875 L 2.28125 -1.796875 L 2.28125 -6.070312 L 6.226562 -6.070312 L 6.226562 -7.878906 L 0.308594 -7.878906 L 0.308594 0 Z M 6.226562 0 "/></g></g></g><g fill="#ffffff" fill-opacity="1"><g transform="translate(95.004367, 91.465271)"><g><path d="M 6.226562 0 L 6.226562 -7.878906 L 0.308594 -7.878906 L 0.308594 0 Z M 4.253906 -1.796875 L 2.28125 -1.796875 L 2.28125 -6.070312 L 4.253906 -6.070312 Z M 4.253906 -1.796875 "/></g></g></g><g fill="#ffffff" fill-opacity="1"><g transform="translate(105.49545, 91.465271)"><g><path d="M 8.054688 0 L 8.054688 -7.878906 L 0.175781 -7.878906 L 0.175781 -6.070312 L 0.566406 -6.070312 L 0.566406 0 L 2.148438 0 L 2.148438 -6.070312 L 3.128906 -6.070312 L 3.128906 0 L 5.101562 0 L 5.101562 -6.070312 L 6.082031 -6.070312 L 6.082031 0 Z M 8.054688 0 "/></g></g></g><g fill="#ffffff" fill-opacity="1"><g transform="translate(117.817461, 91.465271)"><g><path d="M 6.226562 -2.195312 L 6.226562 -7.878906 L 0.308594 -7.878906 L 0.308594 0 L 2.28125 0 L 2.28125 -2.195312 Z M 4.253906 -3.992188 L 2.28125 -3.992188 L 2.28125 -6.070312 L 4.253906 -6.070312 Z M 4.253906 -3.992188 "/></g></g></g><g fill="#ffffff" fill-opacity="1"><g transform="translate(128.273103, 91.465271)"><g><path d="M 6.203125 0 L 6.203125 -1.796875 L 2.28125 -1.796875 L 2.28125 -3.09375 L 6.203125 -3.09375 L 6.203125 -4.832031 L 2.28125 -4.832031 L 2.28125 -6.070312 L 6.203125 -6.070312 L 6.203125 -7.878906 L 0.308594 -7.878906 L 0.308594 0 Z M 6.203125 0 "/></g></g></g><g fill="#ffffff" fill-opacity="1"><g transform="translate(138.740555, 91.465271)"><g><path d="M 6.09375 -6.070312 L 6.09375 -7.878906 L 0.175781 -7.878906 L 0.175781 -6.070312 L 2.160156 -6.070312 L 2.160156 0 L 4.132812 0 L 4.132812 -6.070312 Z M 6.09375 -6.070312 "/></g></g></g><g fill="#ffffff" fill-opacity="1"><g transform="translate(148.971767, 91.465271)"><g><path d="M 2.28125 0 L 2.28125 -7.878906 L 0.308594 -7.878906 L 0.308594 0 Z M 2.28125 0 "/></g></g></g><g fill="#ffffff" fill-opacity="1"><g transform="translate(155.517489, 91.465271)"><g><path d="M 6.09375 -6.070312 L 6.09375 -7.878906 L 0.175781 -7.878906 L 0.175781 -6.070312 L 2.160156 -6.070312 L 2.160156 0 L 4.132812 0 L 4.132812 -6.070312 Z M 6.09375 -6.070312 "/></g></g></g><g fill="#ffffff" fill-opacity="1"><g transform="translate(165.748701, 91.465271)"><g><path d="M 2.28125 0 L 2.28125 -7.878906 L 0.308594 -7.878906 L 0.308594 0 Z M 2.28125 0 "/></g></g></g><g fill="#ffffff" fill-opacity="1"><g transform="translate(172.294424, 91.465271)"><g><path d="M 6.484375 -6.070312 L 6.484375 -7.878906 L 4.121094 -7.878906 L 4.121094 -1.796875 L 2.539062 -1.796875 L 2.539062 -7.878906 L 0.175781 -7.878906 L 0.175781 -6.070312 L 0.566406 -6.070312 L 0.566406 0 L 6.09375 0 L 6.09375 -6.070312 Z M 6.484375 -6.070312 "/></g></g></g><g fill="#ffffff" fill-opacity="1"><g transform="translate(182.915439, 91.465271)"><g><path d="M 6.203125 0 L 6.203125 -1.796875 L 2.28125 -1.796875 L 2.28125 -3.09375 L 6.203125 -3.09375 L 6.203125 -4.832031 L 2.28125 -4.832031 L 2.28125 -6.070312 L 6.203125 -6.070312 L 6.203125 -7.878906 L 0.308594 -7.878906 L 0.308594 0 Z M 6.203125 0 "/></g></g></g><g fill="#ffffff" fill-opacity="1"><g transform="translate(182.477161, 207.146514)"><g><path d="M 6.226562 -2.195312 L 6.226562 -7.878906 L 0.308594 -7.878906 L 0.308594 0 L 2.28125 0 L 2.28125 -2.195312 Z M 4.253906 -3.992188 L 2.28125 -3.992188 L 2.28125 -6.070312 L 4.253906 -6.070312 Z M 4.253906 -3.992188 "/></g></g></g><g fill="#ffffff" fill-opacity="1"><g transform="translate(192.932802, 207.146514)"><g><path d="M 6.226562 0 L 5.066406 -2.195312 L 6.226562 -2.195312 L 6.226562 -7.878906 L 0.308594 -7.878906 L 0.308594 0 L 2.28125 0 L 2.28125 -2.195312 L 3.128906 -2.195312 L 4.253906 0 Z M 4.253906 -3.992188 L 2.28125 -3.992188 L 2.28125 -6.070312 L 4.253906 -6.070312 Z M 4.253906 -3.992188 "/></g></g></g><g fill="#ffffff" fill-opacity="1"><g transform="translate(203.423885, 207.146514)"><g><path d="M 6.226562 0 L 6.226562 -7.878906 L 0.308594 -7.878906 L 0.308594 0 Z M 4.253906 -1.796875 L 2.28125 -1.796875 L 2.28125 -6.070312 L 4.253906 -6.070312 Z M 4.253906 -1.796875 "/></g></g></g><g fill="#ffffff" fill-opacity="1"><g transform="translate(213.914966, 207.146514)"><g><path d="M 6.226562 0 L 6.226562 -3.09375 L 4.253906 -3.09375 L 4.253906 -1.796875 L 2.28125 -1.796875 L 2.28125 -6.070312 L 6.226562 -6.070312 L 6.226562 -7.878906 L 0.308594 -7.878906 L 0.308594 0 Z M 6.226562 0 "/></g></g></g><g fill="#ffffff" fill-opacity="1"><g transform="translate(224.406051, 207.146514)"><g><path d="M 6.226562 0 L 5.066406 -2.195312 L 6.226562 -2.195312 L 6.226562 -7.878906 L 0.308594 -7.878906 L 0.308594 0 L 2.28125 0 L 2.28125 -2.195312 L 3.128906 -2.195312 L 4.253906 0 Z M 4.253906 -3.992188 L 2.28125 -3.992188 L 2.28125 -6.070312 L 4.253906 -6.070312 Z M 4.253906 -3.992188 "/></g></g></g><g fill="#ffffff" fill-opacity="1"><g transform="translate(234.897135, 207.146514)"><g><path d="M 6.226562 0 L 6.226562 -7.878906 L 0.308594 -7.878906 L 0.308594 0 L 2.28125 0 L 2.28125 -2.195312 L 4.253906 -2.195312 L 4.253906 0 Z M 4.253906 -3.992188 L 2.28125 -3.992188 L 2.28125 -6.070312 L 4.253906 -6.070312 Z M 4.253906 -3.992188 "/></g></g></g><g fill="#ffffff" fill-opacity="1"><g transform="translate(245.388219, 207.146514)"><g><path d="M 8.054688 0 L 8.054688 -7.878906 L 0.175781 -7.878906 L 0.175781 -6.070312 L 0.566406 -6.070312 L 0.566406 0 L 2.148438 0 L 2.148438 -6.070312 L 3.128906 -6.070312 L 3.128906 0 L 5.101562 0 L 5.101562 -6.070312 L 6.082031 -6.070312 L 6.082031 0 Z M 8.054688 0 "/></g></g></g><g fill="#ffffff" fill-opacity="1"><g transform="translate(257.710232, 207.146514)"><g><path d="M 8.054688 0 L 8.054688 -7.878906 L 0.175781 -7.878906 L 0.175781 -6.070312 L 0.566406 -6.070312 L 0.566406 0 L 2.148438 0 L 2.148438 -6.070312 L 3.128906 -6.070312 L 3.128906 0 L 5.101562 0 L 5.101562 -6.070312 L 6.082031 -6.070312 L 6.082031 0 Z M 8.054688 0 "/></g></g></g><g fill="#ffffff" fill-opacity="1"><g transform="translate(270.032245, 207.146514)"><g><path d="M 2.28125 0 L 2.28125 -7.878906 L 0.308594 -7.878906 L 0.308594 0 Z M 2.28125 0 "/></g></g></g><g fill="#ffffff" fill-opacity="1"><g transform="translate(276.577968, 207.146514)"><g><path d="M 6.09375 0 L 6.09375 -7.878906 L 0.175781 -7.878906 L 0.175781 -6.070312 L 0.566406 -6.070312 L 0.566406 0 L 2.148438 0 L 2.148438 -6.070312 L 4.121094 -6.070312 L 4.121094 0 Z M 6.09375 0 "/></g></g></g><g fill="#ffffff" fill-opacity="1"><g transform="translate(286.93911, 207.146514)"><g><path d="M 6.226562 0 L 6.226562 -3.09375 L 4.253906 -3.09375 L 4.253906 -1.796875 L 2.28125 -1.796875 L 2.28125 -6.070312 L 6.226562 -6.070312 L 6.226562 -7.878906 L 0.308594 -7.878906 L 0.308594 0 Z M 6.226562 0 "/></g></g></g><g fill="#0652e9" fill-opacity="1"><g transform="translate(29.854628, 255.163606)"><g><path d="M 9.488281 0.21875 C 12.757812 0.21875 15.589844 -1.621094 16.992188 -4.316406 L 13.859375 -5.9375 C 13.0625 -4.371094 11.4375 -3.328125 9.488281 -3.328125 C 6.710938 -3.328125 4.59375 -5.472656 4.59375 -8.25 C 4.59375 -11.027344 6.710938 -13.171875 9.488281 -13.171875 C 11.4375 -13.171875 13.0625 -12.125 13.859375 -10.558594 L 16.992188 -12.179688 C 15.589844 -14.875 12.757812 -16.71875 9.488281 -16.71875 C 4.8125 -16.71875 1.015625 -12.921875 1.015625 -8.25 C 1.015625 -3.574219 4.8125 0.21875 9.488281 0.21875 Z M 9.488281 0.21875 "/></g></g></g><g fill="#ffffff" fill-opacity="1"><g transform="translate(48.534314, 255.163606)"><g><path d="M 6.984375 0.21875 C 10.667969 0.21875 13.089844 -2.199219 13.089844 -5.5 C 13.089844 -8.800781 10.667969 -11.21875 6.984375 -11.21875 C 3.300781 -11.21875 0.851562 -8.800781 0.851562 -5.5 C 0.851562 -2.199219 3.300781 0.21875 6.984375 0.21875 Z M 6.984375 -2.886719 C 5.472656 -2.914062 4.371094 -4.015625 4.371094 -5.5 C 4.371094 -6.984375 5.472656 -8.085938 6.984375 -8.113281 C 8.46875 -8.085938 9.597656 -6.984375 9.597656 -5.5 C 9.597656 -4.015625 8.46875 -2.914062 6.984375 -2.886719 Z M 6.984375 -2.886719 "/></g></g></g><g fill="#ffffff" fill-opacity="1"><g transform="translate(63.469848, 255.163606)"><g><path d="M 14.738281 -11.21875 C 13.171875 -11.21875 11.960938 -10.503906 11.273438 -9.292969 C 10.640625 -10.449219 9.542969 -11.21875 8.140625 -11.21875 C 6.875 -11.21875 5.855469 -10.613281 5.140625 -9.652344 L 5.140625 -11 L 1.621094 -11 L 1.621094 0 L 5.140625 0 L 5.140625 -6.378906 C 5.140625 -7.175781 5.636719 -8.113281 6.710938 -8.113281 C 7.671875 -8.113281 8.304688 -7.339844 8.304688 -6.378906 L 8.304688 0 L 11.824219 0 L 11.824219 -6.378906 C 11.824219 -7.175781 12.320312 -8.113281 13.390625 -8.113281 C 14.351562 -8.113281 15.011719 -7.339844 15.011719 -6.378906 L 15.011719 0 L 18.503906 0 L 18.503906 -6.957031 C 18.503906 -9.515625 17.15625 -11.21875 14.738281 -11.21875 Z M 14.738281 -11.21875 "/></g></g></g><g fill="#ffffff" fill-opacity="1"><g transform="translate(84.344329, 255.163606)"><g><path d="M 8.277344 -11.21875 C 7.011719 -11.21875 5.96875 -10.777344 5.140625 -10.035156 L 5.140625 -10.972656 L 1.621094 -11 L 1.621094 6.597656 L 5.140625 6.625 L 5.140625 -0.960938 C 5.96875 -0.21875 7.011719 0.21875 8.277344 0.21875 C 11.300781 0.21875 13.695312 -2.308594 13.695312 -5.5 C 13.695312 -8.6875 11.300781 -11.21875 8.277344 -11.21875 Z M 7.589844 -2.886719 C 6.132812 -2.886719 4.976562 -4.042969 4.976562 -5.5 C 4.976562 -6.957031 6.132812 -8.113281 7.589844 -8.113281 C 9.046875 -8.113281 10.203125 -6.957031 10.203125 -5.5 C 10.203125 -4.042969 9.046875 -2.886719 7.589844 -2.886719 Z M 7.589844 -2.886719 "/></g></g></g><g fill="#ffffff" fill-opacity="1"><g transform="translate(99.857263, 255.163606)"><g><path d="M 12.8125 -5.527344 C 12.8125 -8.964844 10.449219 -11.246094 6.902344 -11.246094 C 3.355469 -11.246094 0.851562 -8.9375 0.851562 -5.5 C 0.851562 -2.0625 3.328125 0.21875 7.011719 0.21875 C 10.0625 0.21875 12.097656 -1.402344 12.648438 -3.792969 L 9.265625 -3.792969 C 8.964844 -2.914062 8.167969 -2.390625 6.957031 -2.390625 C 5.363281 -2.390625 4.535156 -3.355469 4.398438 -4.921875 L 12.8125 -4.921875 Z M 6.957031 -8.550781 C 8.140625 -8.550781 8.828125 -8 9.183594 -7.039062 L 4.621094 -7.039062 C 4.976562 -7.972656 5.71875 -8.550781 6.957031 -8.550781 Z M 6.957031 -8.550781 "/></g></g></g><g fill="#ffffff" fill-opacity="1"><g transform="translate(114.462853, 255.163606)"><g><path d="M 8.25 -8.277344 L 8.25 -11 L 5.636719 -11 L 5.636719 -15.234375 L 2.144531 -15.234375 L 2.144531 -11 L 0.300781 -11 L 0.300781 -8.277344 L 2.144531 -8.277344 L 2.144531 -3.933594 C 2.144531 -1.59375 4.125 0.21875 6.460938 0.21875 C 7.203125 0.21875 7.945312 0.0546875 8.222656 -0.136719 L 8.222656 -2.859375 L 6.902344 -2.859375 C 6.160156 -2.859375 5.636719 -3.4375 5.636719 -4.34375 L 5.636719 -8.277344 Z M 8.25 -8.277344 "/></g></g></g><g fill="#ffffff" fill-opacity="1"><g transform="translate(124.229297, 255.163606)"><g><path d="M 3.4375 -12.839844 C 4.480469 -12.839844 5.363281 -13.722656 5.363281 -14.765625 C 5.363281 -15.839844 4.480469 -16.691406 3.4375 -16.691406 C 2.390625 -16.691406 1.511719 -15.839844 1.511719 -14.765625 C 1.511719 -13.722656 2.390625 -12.839844 3.4375 -12.839844 Z M 1.675781 0 L 5.167969 0 L 5.167969 -11 L 1.675781 -11 Z M 1.675781 0 "/></g></g></g><g fill="#ffffff" fill-opacity="1"><g transform="translate(132.071086, 255.163606)"><g><path d="M 8.25 -8.277344 L 8.25 -11 L 5.636719 -11 L 5.636719 -15.234375 L 2.144531 -15.234375 L 2.144531 -11 L 0.300781 -11 L 0.300781 -8.277344 L 2.144531 -8.277344 L 2.144531 -3.933594 C 2.144531 -1.59375 4.125 0.21875 6.460938 0.21875 C 7.203125 0.21875 7.945312 0.0546875 8.222656 -0.136719 L 8.222656 -2.859375 L 6.902344 -2.859375 C 6.160156 -2.859375 5.636719 -3.4375 5.636719 -4.34375 L 5.636719 -8.277344 Z M 8.25 -8.277344 "/></g></g></g><g fill="#ffffff" fill-opacity="1"><g transform="translate(141.837531, 255.163606)"><g><path d="M 3.4375 -12.839844 C 4.480469 -12.839844 5.363281 -13.722656 5.363281 -14.765625 C 5.363281 -15.839844 4.480469 -16.691406 3.4375 -16.691406 C 2.390625 -16.691406 1.511719 -15.839844 1.511719 -14.765625 C 1.511719 -13.722656 2.390625 -12.839844 3.4375 -12.839844 Z M 1.675781 0 L 5.167969 0 L 5.167969 -11 L 1.675781 -11 Z M 1.675781 0 "/></g></g></g><g fill="#ffffff" fill-opacity="1"><g transform="translate(149.679319, 255.163606)"><g><path d="M 8.25 -11 L 5.9375 -3.765625 L 3.601562 -11 L -0.136719 -11 L 4.261719 0 L 7.5625 0 L 12.015625 -11 Z M 8.25 -11 "/></g></g></g><g fill="#ffffff" fill-opacity="1"><g transform="translate(162.52522, 255.163606)"><g><path d="M 12.8125 -5.527344 C 12.8125 -8.964844 10.449219 -11.246094 6.902344 -11.246094 C 3.355469 -11.246094 0.851562 -8.9375 0.851562 -5.5 C 0.851562 -2.0625 3.328125 0.21875 7.011719 0.21875 C 10.0625 0.21875 12.097656 -1.402344 12.648438 -3.792969 L 9.265625 -3.792969 C 8.964844 -2.914062 8.167969 -2.390625 6.957031 -2.390625 C 5.363281 -2.390625 4.535156 -3.355469 4.398438 -4.921875 L 12.8125 -4.921875 Z M 6.957031 -8.550781 C 8.140625 -8.550781 8.828125 -8 9.183594 -7.039062 L 4.621094 -7.039062 C 4.976562 -7.972656 5.71875 -8.550781 6.957031 -8.550781 Z M 6.957031 -8.550781 "/></g></g></g><g fill="#ffffff" fill-opacity="1"><g transform="translate(177.13081, 255.163606)"><g/></g></g><g fill="#62e1e9" fill-opacity="1"><g transform="translate(184.706184, 255.163606)"><g><path d="M 8.632812 -16.5 L 1.621094 -16.5 L 1.621094 0 L 5.25 0 L 5.25 -6.683594 L 8.632812 -6.683594 C 11.410156 -6.683594 13.554688 -8.742188 13.554688 -11.519531 C 13.554688 -14.269531 11.410156 -16.5 8.632812 -16.5 Z M 8.054688 -9.679688 L 5.25 -9.679688 L 5.25 -13.308594 L 8.054688 -13.308594 C 9.210938 -13.308594 10.089844 -12.566406 10.089844 -11.492188 C 10.089844 -10.394531 9.210938 -9.679688 8.054688 -9.679688 Z M 8.054688 -9.679688 "/></g></g></g><g fill="#ffffff" fill-opacity="1"><g transform="translate(199.342898, 255.163606)"><g><path d="M 8.222656 -11.21875 C 6.929688 -11.21875 5.855469 -10.558594 5.140625 -9.488281 L 5.140625 -11 L 1.621094 -11 L 1.621094 0 L 5.140625 0 L 5.140625 -5.25 C 5.140625 -7.066406 6.378906 -8.113281 8.113281 -8.113281 C 8.523438 -8.113281 8.882812 -8.054688 9.128906 -8 L 9.128906 -11.109375 C 8.882812 -11.191406 8.550781 -11.21875 8.222656 -11.21875 Z M 8.222656 -11.21875 "/></g></g></g><g fill="#ffffff" fill-opacity="1"><g transform="translate(209.384298, 255.163606)"><g><path d="M 6.984375 0.21875 C 10.667969 0.21875 13.089844 -2.199219 13.089844 -5.5 C 13.089844 -8.800781 10.667969 -11.21875 6.984375 -11.21875 C 3.300781 -11.21875 0.851562 -8.800781 0.851562 -5.5 C 0.851562 -2.199219 3.300781 0.21875 6.984375 0.21875 Z M 6.984375 -2.886719 C 5.472656 -2.914062 4.371094 -4.015625 4.371094 -5.5 C 4.371094 -6.984375 5.472656 -8.085938 6.984375 -8.113281 C 8.46875 -8.085938 9.597656 -6.984375 9.597656 -5.5 C 9.597656 -4.015625 8.46875 -2.914062 6.984375 -2.886719 Z M 6.984375 -2.886719 "/></g></g></g><g fill="#ffffff" fill-opacity="1"><g transform="translate(224.319832, 255.163606)"><g><path d="M 13.253906 -11 L 9.734375 -11 L 9.734375 -9.898438 C 8.828125 -10.722656 7.644531 -11.21875 6.296875 -11.21875 C 3.246094 -11.21875 0.851562 -8.714844 0.851562 -5.5 C 0.851562 -2.308594 3.246094 0.21875 6.296875 0.21875 C 7.671875 0.21875 8.882812 -0.300781 9.789062 -1.15625 L 9.789062 0.300781 C 9.789062 2.335938 8.660156 3.574219 6.875 3.574219 C 5.609375 3.574219 4.648438 2.886719 4.234375 1.789062 L 1.015625 3.078125 C 1.925781 5.335938 3.988281 6.625 6.875 6.625 C 10.890625 6.625 13.28125 4.179688 13.28125 0.109375 Z M 7.175781 -2.886719 C 5.71875 -2.886719 4.566406 -4.042969 4.566406 -5.5 C 4.566406 -6.957031 5.71875 -8.113281 7.175781 -8.113281 C 8.632812 -8.113281 9.816406 -6.957031 9.816406 -5.5 C 9.816406 -4.042969 8.632812 -2.886719 7.175781 -2.886719 Z M 7.175781 -2.886719 "/></g></g></g><g fill="#ffffff" fill-opacity="1"><g transform="translate(240.217689, 255.163606)"><g><path d="M 8.222656 -11.21875 C 6.929688 -11.21875 5.855469 -10.558594 5.140625 -9.488281 L 5.140625 -11 L 1.621094 -11 L 1.621094 0 L 5.140625 0 L 5.140625 -5.25 C 5.140625 -7.066406 6.378906 -8.113281 8.113281 -8.113281 C 8.523438 -8.113281 8.882812 -8.054688 9.128906 -8 L 9.128906 -11.109375 C 8.882812 -11.191406 8.550781 -11.21875 8.222656 -11.21875 Z M 8.222656 -11.21875 "/></g></g></g><g fill="#ffffff" fill-opacity="1"><g transform="translate(250.25909, 255.163606)"><g><path d="M 13.886719 -2.859375 C 13.417969 -2.859375 12.921875 -3.023438 12.921875 -3.933594 L 12.921875 -11 L 9.429688 -11 L 9.429688 -10.035156 C 8.605469 -10.777344 7.5625 -11.21875 6.296875 -11.21875 C 3.246094 -11.21875 0.851562 -8.6875 0.851562 -5.5 C 0.851562 -2.308594 3.246094 0.21875 6.296875 0.21875 C 7.890625 0.21875 9.183594 -0.496094 10.0625 -1.648438 C 10.75 -0.523438 11.960938 0.21875 13.445312 0.21875 C 13.804688 0.21875 14.132812 0.109375 14.382812 0 L 14.382812 -2.859375 Z M 6.984375 -2.886719 C 5.527344 -2.886719 4.371094 -4.042969 4.371094 -5.5 C 4.371094 -6.957031 5.527344 -8.113281 6.984375 -8.113281 C 8.414062 -8.113281 9.597656 -6.957031 9.597656 -5.5 C 9.597656 -4.042969 8.414062 -2.886719 6.984375 -2.886719 Z M 6.984375 -2.886719 "/></g></g></g><g fill="#ffffff" fill-opacity="1"><g transform="translate(266.01948, 255.163606)"><g><path d="M 14.738281 -11.21875 C 13.171875 -11.21875 11.960938 -10.503906 11.273438 -9.292969 C 10.640625 -10.449219 9.542969 -11.21875 8.140625 -11.21875 C 6.875 -11.21875 5.855469 -10.613281 5.140625 -9.652344 L 5.140625 -11 L 1.621094 -11 L 1.621094 0 L 5.140625 0 L 5.140625 -6.378906 C 5.140625 -7.175781 5.636719 -8.113281 6.710938 -8.113281 C 7.671875 -8.113281 8.304688 -7.339844 8.304688 -6.378906 L 8.304688 0 L 11.824219 0 L 11.824219 -6.378906 C 11.824219 -7.175781 12.320312 -8.113281 13.390625 -8.113281 C 14.351562 -8.113281 15.011719 -7.339844 15.011719 -6.378906 L 15.011719 0 L 18.503906 0 L 18.503906 -6.957031 C 18.503906 -9.515625 17.15625 -11.21875 14.738281 -11.21875 Z M 14.738281 -11.21875 "/></g></g></g><g fill="#ffffff" fill-opacity="1"><g transform="translate(286.89396, 255.163606)"><g><path d="M 14.738281 -11.21875 C 13.171875 -11.21875 11.960938 -10.503906 11.273438 -9.292969 C 10.640625 -10.449219 9.542969 -11.21875 8.140625 -11.21875 C 6.875 -11.21875 5.855469 -10.613281 5.140625 -9.652344 L 5.140625 -11 L 1.621094 -11 L 1.621094 0 L 5.140625 0 L 5.140625 -6.378906 C 5.140625 -7.175781 5.636719 -8.113281 6.710938 -8.113281 C 7.671875 -8.113281 8.304688 -7.339844 8.304688 -6.378906 L 8.304688 0 L 11.824219 0 L 11.824219 -6.378906 C 11.824219 -7.175781 12.320312 -8.113281 13.390625 -8.113281 C 14.351562 -8.113281 15.011719 -7.339844 15.011719 -6.378906 L 15.011719 0 L 18.503906 0 L 18.503906 -6.957031 C 18.503906 -9.515625 17.15625 -11.21875 14.738281 -11.21875 Z M 14.738281 -11.21875 "/></g></g></g><g fill="#ffffff" fill-opacity="1"><g transform="translate(307.76844, 255.163606)"><g><path d="M 3.4375 -12.839844 C 4.480469 -12.839844 5.363281 -13.722656 5.363281 -14.765625 C 5.363281 -15.839844 4.480469 -16.691406 3.4375 -16.691406 C 2.390625 -16.691406 1.511719 -15.839844 1.511719 -14.765625 C 1.511719 -13.722656 2.390625 -12.839844 3.4375 -12.839844 Z M 1.675781 0 L 5.167969 0 L 5.167969 -11 L 1.675781 -11 Z M 1.675781 0 "/></g></g></g><g fill="#ffffff" fill-opacity="1"><g transform="translate(315.610229, 255.163606)"><g><path d="M 8.277344 -11.21875 C 7.011719 -11.21875 5.910156 -10.613281 5.140625 -9.652344 L 5.140625 -11 L 1.621094 -11 L 1.621094 0 L 5.140625 0 L 5.140625 -6.378906 C 5.140625 -7.371094 5.96875 -8.113281 6.984375 -8.113281 C 8 -8.113281 8.714844 -7.371094 8.714844 -6.378906 L 8.714844 0 L 12.207031 0 L 12.207031 -6.957031 C 12.207031 -9.375 10.449219 -11.21875 8.277344 -11.21875 Z M 8.277344 -11.21875 "/></g></g></g><g fill="#ffffff" fill-opacity="1"><g transform="translate(330.188318, 255.163606)"><g><path d="M 13.253906 -11 L 9.734375 -11 L 9.734375 -9.898438 C 8.828125 -10.722656 7.644531 -11.21875 6.296875 -11.21875 C 3.246094 -11.21875 0.851562 -8.714844 0.851562 -5.5 C 0.851562 -2.308594 3.246094 0.21875 6.296875 0.21875 C 7.671875 0.21875 8.882812 -0.300781 9.789062 -1.15625 L 9.789062 0.300781 C 9.789062 2.335938 8.660156 3.574219 6.875 3.574219 C 5.609375 3.574219 4.648438 2.886719 4.234375 1.789062 L 1.015625 3.078125 C 1.925781 5.335938 3.988281 6.625 6.875 6.625 C 10.890625 6.625 13.28125 4.179688 13.28125 0.109375 Z M 7.175781 -2.886719 C 5.71875 -2.886719 4.566406 -4.042969 4.566406 -5.5 C 4.566406 -6.957031 5.71875 -8.113281 7.175781 -8.113281 C 8.632812 -8.113281 9.816406 -6.957031 9.816406 -5.5 C 9.816406 -4.042969 8.632812 -2.886719 7.175781 -2.886719 Z M 7.175781 -2.886719 "/></g></g></g><g fill="#ffffff" fill-opacity="1"><g transform="translate(346.096798, 255.163606)"><g/></g></g><g fill="#ffffff" fill-opacity="1"><g transform="translate(159.979623, 285.913604)"><g><path d="M 9.488281 0.21875 C 12.757812 0.21875 15.589844 -1.621094 16.992188 -4.316406 L 13.859375 -5.9375 C 13.0625 -4.371094 11.4375 -3.328125 9.488281 -3.328125 C 6.710938 -3.328125 4.59375 -5.472656 4.59375 -8.25 C 4.59375 -11.027344 6.710938 -13.171875 9.488281 -13.171875 C 11.4375 -13.171875 13.0625 -12.125 13.859375 -10.558594 L 16.992188 -12.179688 C 15.589844 -14.875 12.757812 -16.71875 9.488281 -16.71875 C 4.8125 -16.71875 1.015625 -12.921875 1.015625 -8.25 C 1.015625 -3.574219 4.8125 0.21875 9.488281 0.21875 Z M 9.488281 0.21875 "/></g></g></g><g fill="#ffffff" fill-opacity="1"><g transform="translate(178.654491, 285.913604)"><g><path d="M 1.621094 0 L 5.140625 0 L 5.140625 -18.835938 L 1.621094 -18.835938 Z M 1.621094 0 "/></g></g></g><g fill="#ffffff" fill-opacity="1"><g transform="translate(186.386291, 285.913604)"><g><path d="M 6.542969 0.21875 C 9.871094 0.21875 11.714844 -1.511719 11.714844 -4.207031 L 11.714844 -11 L 8.222656 -11 L 8.222656 -4.675781 C 8.222656 -3.628906 7.507812 -2.886719 6.542969 -2.886719 C 5.609375 -2.886719 4.894531 -3.628906 4.894531 -4.675781 L 4.894531 -11 L 1.375 -11 L 1.375 -4.207031 C 1.375 -1.511719 3.21875 0.21875 6.542969 0.21875 Z M 6.542969 0.21875 "/></g></g></g><g fill="#ffffff" fill-opacity="1"><g transform="translate(200.46947, 285.913604)"><g><path d="M 8.277344 -11.21875 C 7.011719 -11.21875 5.96875 -10.777344 5.140625 -10.035156 L 5.140625 -18.835938 L 1.621094 -18.835938 L 1.621094 0 L 5.140625 0.0273438 L 5.140625 -0.960938 C 5.96875 -0.21875 7.011719 0.21875 8.277344 0.21875 C 11.300781 0.21875 13.695312 -2.308594 13.695312 -5.5 C 13.695312 -8.6875 11.300781 -11.21875 8.277344 -11.21875 Z M 7.589844 -2.886719 C 6.132812 -2.886719 4.976562 -4.042969 4.976562 -5.5 C 4.976562 -6.957031 6.132812 -8.113281 7.589844 -8.113281 C 9.046875 -8.113281 10.203125 -6.957031 10.203125 -5.5 C 10.203125 -4.042969 9.046875 -2.886719 7.589844 -2.886719 Z M 7.589844 -2.886719 "/></g></g></g></svg>